<?xml version="1.0" standalone="no"?>
<!DOCTYPE svg PUBLIC "-//W3C//DTD SVG 1.1//EN" "http://www.w3.org/Graphics/SVG/1.1/DTD/svg11.dtd">
<svg xmlns="http://www.w3.org/2000/svg">
<defs >
<font id="JosefinSans" horiz-adv-x="488" ><font-face
    font-family="Josefin Sans"
    units-per-em="1000"
    panose-1="0 0 0 0 0 0 0 0 0 0"
    ascent="750"
    descent="-250"
    alphabetic="0" />
<glyph unicode=" " glyph-name="space" horiz-adv-x="252" />
<glyph unicode="!" glyph-name="exclam" horiz-adv-x="236" d="M100 753H136V167H100V753ZM118 25Q107 25 98 33T89 55Q89 69 98 77T118 86Q130 86 139 78T148 55Q148 42 139 34T118 25Z" />
<glyph unicode="&quot;" glyph-name="quotedbl" horiz-adv-x="322" d="M210 474V723H249L245 474H210ZM76 474V723H115L111 474H76Z" />
<glyph unicode="#" glyph-name="numbersign" horiz-adv-x="569" d="M312 0Q319 54 325 107T337 214H189Q182 160 176 107T164 0H127Q134 54 140 107T152 214H43L47 250H157L174 397H66L69 433H179Q185 487 191 539T205 646H241L215 433H363Q370 487 376 539T389
646H426L400 433H525Q525 424 524 415T522 397H396Q391 360 387 324T378 250H503L499 214H373L349 0H312ZM211 397L193 250H342L359 397H211Z" />
<glyph unicode="$" glyph-name="dollar" horiz-adv-x="535" d="M456 672L441 639Q410 652 367 662T281 673H278V406Q316 392 354 376T422 336T471 278T490 193Q490 149 475 113T431 52T364 11T278 -7V-68H250V-8Q209 -7 175 1T115 21T70 43T41 60L61 97Q77 86
98 75T144 55T196 39T250 32V374Q216 386 185 400T129 432T89 477T74 539Q74 572 86 601T122 653T177 690T250 709V772H278V711Q300 711 325 707T375 698T420 685T456 672ZM449 193Q449 230 435 257T397 303T342 337T278 364V33Q308 36 338 46T393 77T433 125T449
193ZM115 544Q115 518 125 499T154 464T197 438T250 416V671Q187 663 151 627T115 544Z" />
<glyph unicode="%" glyph-name="percent" horiz-adv-x="646" d="M408 112Q408 79 431 56T488 33Q522 33 545 56T568 112Q568 145 545 168T488 192Q454 192 431 169T408 112ZM488 -2Q464 -2 443 7T407 31T382 68T372 113Q372 137 381 157T406 193T443 218T488 227Q511
227 532 218T569 194T594 158T604 113Q604 89 595 68T569 32T532 7T488 -2ZM83 390Q83 357 106 334T163 311Q197 311 220 334T243 390Q243 423 220 446T163 469Q129 469 106 446T83 390ZM163 275Q139 275 118 284T81 308T56 345T47 391Q47 415 56 435T81 471T118
496T163 505Q186 505 207 496T244 472T269 436T279 391Q279 367 270 346T244 309T207 284T163 275ZM152 0Q227 127 301 251T451 502H491Q416 375 342 251T192 0H152Z" />
<glyph unicode="&amp;" glyph-name="ampersand" horiz-adv-x="641" d="M595 0H553Q544 11 533 25Q523 37 511 52T483 88Q454 46 399 20T277 -7Q227 -7 185 8T113 51T65 114T48 192Q48 232 64 266T107 328T169 372T245 395Q215 434 195 461T171 496Q158 520 149
544T139 600Q139 634 152 662T186 709T237 740T299 751Q341 751 376 738T436 709Q435 707 428 697T418 684Q394 698 367 707T311 718Q284 719 260 711T217 688T187 650T176 600Q176 582 180 566T189 537T198 518T203 510L478 152L570 397H608L502 120L595 0ZM270
362Q237 361 204 349T145 314T102 261T85 192Q85 154 101 124T143 72T205 39T279 27Q308 27 335 34T387 53T430 81T462 115Q418 171 367 237T270 362Z" />
<glyph unicode="&apos;" glyph-name="quotesingle" horiz-adv-x="189" d="M76 474V723H115L111 474H76Z" />
<glyph unicode="(" glyph-name="parenleft" horiz-adv-x="262" d="M47 293Q47 368 61 436T98 563T151 669T213 750L238 727Q209 694 182 649T132 548T97 429T84 293Q84 221 97 157T132 38T181 -63T238 -141L213 -164Q181 -131 152 -84T99 22T61 149T47 293Z" />
<glyph unicode=")" glyph-name="parenright" horiz-adv-x="262" d="M215 292Q215 217 201 149T164 22T110 -84T49 -165L24 -142Q53 -109 80 -64T130 36T165 155T178 291Q178 363 165 427T130 546T81 647T24 725L49 749Q80 715 110 668T163 563T201 436T215 292Z" />
<glyph unicode="*" glyph-name="asterisk" horiz-adv-x="397" d="M227 575L329 517L313 490L212 550L210 434H183V550L83 492L67 519L168 576L67 636Q71 642 74 648T81 660L183 600V720H214L212 600Q238 614 264 629T316 659Q320 653 323 647T330 635L227 575Z" />
<glyph unicode="+" glyph-name="plus" horiz-adv-x="466" d="M215 51V215H52V250H215V413H251V250H414V215H251V51H215Z" />
<glyph unicode="," glyph-name="comma" horiz-adv-x="225" d="M147 86L61 -120H27Q47 -68 66 -17T105 86H147Z" />
<glyph unicode="-" glyph-name="hyphen" horiz-adv-x="319" d="M67 181V216H252V181H67Z" />
<glyph unicode="." glyph-name="period" horiz-adv-x="192" d="M66 30Q66 43 75 52T96 61Q108 61 117 52T126 30Q126 17 117 9T96 0Q84 0 75 8T66 30Z" />
<glyph unicode="/" glyph-name="slash" horiz-adv-x="400" d="M42 -19L321 739H358Q287 548 218 360T78 -19H42Z" />
<glyph unicode="0" glyph-name="zero" horiz-adv-x="662" d="M61 329Q61 386 77 445T127 552T212 630T334 661Q404 661 455 629T538 549T586 441T600 325Q600 253 578 192T520 87T434 18T328 -7Q273 -7 225 18T140 88T82 194T61 329ZM99 329Q98 262 117 207T168
112T242 50T329 28Q374 28 416 49T491 110T544 204T564 325Q564 388 548 442T502 537T428 601T333 625Q280 625 237 602T164 539T116 445T99 329Z" />
<glyph unicode="1" glyph-name="one" horiz-adv-x="289" d="M37 617V653H173V0H136V617H37Z" />
<glyph unicode="2" glyph-name="two" horiz-adv-x="516" d="M152 35H476V0H63Q127 62 187 122T293 239T368 349T396 449Q396 499 382 533T345 587T296 616T247 625Q201 625 172 609T125 568T102 517T95 466Q95 431 105 404T134 355L112 333Q86 357 72 391T58 466Q58
506 70 542T107 604T166 645T247 661Q288 661 322 646T380 603T418 540T432 461Q432 405 407 351T341 244T250 139T152 35Z" />
<glyph unicode="3" glyph-name="three" horiz-adv-x="477" d="M142 351Q190 418 238 484T335 617H72V653H400Q354 590 308 529T216 404Q258 402 294 386T358 342T400 279T416 200Q416 157 400 120T355 54T288 9T207 -8Q160 -8 121 10T53 60L80 87Q102 61 134 44T204
27Q240 27 272 41T328 78T366 133T380 200Q380 236 366 267T328 322T272 358T204 372Q171 372 142 351Z" />
<glyph unicode="4" glyph-name="four" horiz-adv-x="526" d="M351 560Q287 475 219 387T86 215H351V560ZM14 179Q106 299 200 420T388 661V215H485V179H388V0H351V179H14Z" />
<glyph unicode="5" glyph-name="five" horiz-adv-x="467" d="M89 331V653H377V617H121V387Q140 396 159 401T200 406Q245 406 283 390T350 346T395 281T411 201Q411 157 394 119T349 53T282 9T200 -8Q158 -8 122 7T57 50L84 75Q106 52 135 40T199 27Q235 27 267
41T323 78T361 133T375 200Q375 235 361 266T323 320T267 356T199 370Q167 370 138 360T89 331Z" />
<glyph unicode="6" glyph-name="six" horiz-adv-x="530" d="M93 199Q93 163 106 132T143 78T198 41T265 27Q301 27 332 40T387 77T425 132T439 199Q439 235 425 266T388 320T333 356T265 370Q229 370 198 357T144 320T107 266T93 199ZM57 199Q57 274 89 337T170
455T277 554T388 637Q393 629 399 622T411 607Q355 570 309 533T228 461T170 396T134 341Q157 370 191 388T266 406Q309 406 347 390T413 345T458 280T475 199Q475 156 459 119T414 53T347 9T266 -8Q225 -8 188 7T121 49T75 115T57 199Z" />
<glyph unicode="7" glyph-name="seven" horiz-adv-x="458" d="M36 617V653H442Q370 486 300 326T159 0H117Q183 152 250 307T385 617H36Z" />
<glyph unicode="8" glyph-name="eight" horiz-adv-x="531" d="M149 509Q149 487 158 468T183 436T220 415T265 407Q313 407 345 435T377 509Q377 532 369 553T345 590T310 615T265 625Q241 625 220 616T183 590T158 553T149 509ZM94 200Q94 165 107 134T143 79T197
41T263 27Q299 27 331 41T387 78T425 133T439 200Q439 235 425 266T388 320T332 356T264 370Q229 370 198 357T144 321T108 267T94 200ZM57 199Q57 235 68 266T97 322T141 364T197 391Q159 407 136 439T113 512Q113 543 124 570T156 617T204 649T262 661Q293 661
320 649T368 617T400 569T412 510Q412 471 391 440T331 391Q361 382 387 365T433 323T464 267T475 199Q475 157 459 119T415 53T348 9T264 -8Q220 -8 182 8T116 53T73 119T57 199Z" />
<glyph unicode="9" glyph-name="nine" horiz-adv-x="530" d="M473 430Q473 355 441 292T359 174T252 75T142 -8L119 21Q175 58 221 95T302 167T360 233T395 288Q372 259 339 241T264 223Q221 223 183 239T117 284T72 349T55 430Q55 473 71 510T116 576T183 620T264
637Q305 637 342 622T409 580T455 514T473 430ZM437 430Q437 466 424 497T387 551T332 587T265 601Q229 601 198 588T142 551T105 497T91 430Q91 394 105 363T142 309T197 272T265 258Q301 258 332 271T386 308T423 363T437 430Z" />
<glyph unicode=":" glyph-name="colon" horiz-adv-x="193" d="M66 287Q66 300 75 309T96 318Q108 318 117 309T126 287Q126 274 117 266T96 257Q84 257 75 265T66 287ZM66 30Q66 43 75 52T96 61Q108 61 117 52T126 30Q126 17 117 9T96 0Q84 0 75 8T66 30Z" />
<glyph unicode=";" glyph-name="semicolon" horiz-adv-x="244" d="M146 86L60 -120H26Q46 -68 65 -17T104 86H146ZM103 281Q103 294 112 303T133 312Q145 312 154 303T163 281Q163 268 154 260T133 251Q121 251 112 259T103 281Z" />
<glyph unicode="&lt;" glyph-name="less" horiz-adv-x="558" d="M475 32V-15L36 239L475 493V446L116 239L475 32Z" />
<glyph unicode="=" glyph-name="equal" horiz-adv-x="658" d="M583 174V138H75V174H583ZM583 369V333H75V369H583Z" />
<glyph unicode="&gt;" glyph-name="greater" horiz-adv-x="558" d="M83 -15V32L442 239L83 446V493L522 239L83 -15Z" />
<glyph unicode="?" glyph-name="question" horiz-adv-x="478" d="M70 584L37 595Q46 622 62 647T103 691T158 723T228 735Q269 735 305 720T367 678T409 615T425 539Q425 485 399 444T326 370Q308 357 292 347T263 325T242 293T234 243V165H198V262Q198 293 209
312T237 346T278 375T325 410Q388 463 388 539Q388 573 376 602T343 653T292 687T228 699Q169 699 128 669T70 584ZM215 17Q204 17 195 25T186 47Q186 61 195 69T215 78Q226 78 235 70T245 47Q245 34 236 26T215 17Z" />
<glyph unicode="@" glyph-name="at" horiz-adv-x="926" d="M240 193Q240 235 256 272T299 336T362 380T441 396Q471 396 498 388T547 364T585 330T611 288Q611 313 612 338T615 387H645V32H716Q739 32 759 42T794 73T818 126T827 204Q827 277 800 343T724 458T608
536T460 565Q377 565 308 535T190 452T113 333T85 192Q85 115 114 48T193 -69T311 -149T456 -178Q517 -178 572 -160T673 -109L694 -133Q643 -171 582 -191T455 -211Q372 -211 299 -179T170 -93T83 36T51 194Q51 275 81 348T166 476T296 565T461 598Q548 598 621
567T748 481T831 356T861 205Q861 146 849 107T815 44T767 10T711 0H611V99Q594 55 549 24T441 -7Q398 -7 362 9T298 52T256 115T240 193ZM274 194Q274 159 287 129T322 76T376 40T442 27Q477 27 508 40T562 75T598 128T611 194Q611 229 598 260T562 313T508 349T442
362Q407 362 376 349T323 314T287 260T274 194Z" />
<glyph unicode="A" glyph-name="A" horiz-adv-x="640" d="M578 0Q552 63 523 136T463 287H177Q147 209 118 136T63 0H21Q42 49 66 109T117 235T171 369T224 504T275 630T321 740Q341 691 365 631T416 504T470 370T523 235T574 109T620 0H578ZM311 623Q283 557
253 481T191 323H449Q418 404 388 480T330 623L321 652Q319 644 316 636T311 623Z" />
<glyph unicode="B" glyph-name="B" horiz-adv-x="573" d="M153 669V373H286Q358 373 395 416T433 526Q433 564 421 591T388 635T338 661T273 669H153ZM153 337V38H288Q325 38 358 47T416 74T455 121T470 186Q470 226 453 254T408 301T344 328T270 337H153ZM111
0V707H263Q310 707 349 697T415 666T458 610T474 526Q474 497 468 471T449 422T413 382T360 356Q389 350 416 337T464 302T497 252T510 184Q510 138 492 104T443 46T373 12T291 0H111Z" />
<glyph unicode="C" glyph-name="C" horiz-adv-x="644" d="M608 45Q573 23 524 8T412 -8Q331 -8 265 20T153 98T81 212T55 349Q55 427 83 493T161 609T276 687T417 715Q471 715 520 702T604 665Q598 656 595 651T584 632Q549 654 506 665T419 676Q352 676 293 651T191
581T122 477T96 351Q96 288 118 231T182 130T282 60T412 34Q467 34 513 48T589 82L608 45Z" />
<glyph unicode="D" glyph-name="D" horiz-adv-x="711" d="M111 707H265Q372 707 446 675T566 591T634 476T655 351Q655 270 627 206T550 95T436 25T299 0H111V707ZM299 40Q364 40 421 61T521 123T589 222T614 353Q614 412 594 468T532 569T427 639T280 666H152V40H299Z" />
<glyph unicode="E" glyph-name="E" horiz-adv-x="611" d="M111 0V707H544V669H153V375H504V337H153V39H558V0H111Z" />
<glyph unicode="F" glyph-name="F" horiz-adv-x="546" d="M111 0V707H503V668H153V366H464V327H153V0H111Z" />
<glyph unicode="G" glyph-name="G" horiz-adv-x="680" d="M609 313V42Q569 19 520 6T417 -8Q334 -8 268 20T154 96T81 209T55 349Q55 426 84 493T162 609T278 687T419 715Q470 715 519 702T609 665L588 631Q552 652 508 664T418 676Q352 676 294 651T192 581T123
477T97 350Q97 284 119 226T184 125T284 56T415 31Q455 31 495 40T570 69V277H407V313H609Z" />
<glyph unicode="H" glyph-name="H" horiz-adv-x="740" d="M111 0V707H152V376H587V707H631L628 0H587V337H152V0H111Z" />
<glyph unicode="I" glyph-name="I" horiz-adv-x="263" d="M111 707H152V0H111V707Z" />
<glyph unicode="J" glyph-name="J" horiz-adv-x="269" d="M-49 -144V-105Q-13 -103 18 -89T71 -47T106 18T119 106V707H160V103Q160 44 144 -1T100 -78T33 -126T-49 -144Z" />
<glyph unicode="K" glyph-name="K" horiz-adv-x="605" d="M551 0Q472 100 397 196T244 392L155 308Q155 230 155 154T156 0H111V707H156V387Q156 379 155 372T154 356L172 378Q258 459 342 542T512 707H567L275 420Q360 314 439 211T603 0H551Z" />
<glyph unicode="L" glyph-name="L" horiz-adv-x="556" d="M111 0V707H153V40H545V0H111Z" />
<glyph unicode="M" glyph-name="M" horiz-adv-x="895" d="M111 739Q148 683 193 619T283 490T370 365T447 256Q459 273 481 305T531 378T593 467T659 563T725 656T784 739V0H741V577Q741 587 741 597T742 617Q707 569 668 512T589 396T513 282T447 184Q429 208
403 245T347 325T286 413T228 499T181 570T150 617Q150 608 151 598T152 577V0H111V739Z" />
<glyph unicode="N" glyph-name="N" horiz-adv-x="812" d="M701 707V-32Q644 39 573 123T430 294T289 464T169 617L150 643L153 611V0H111V740Q169 667 238 583T380 413T520 244T644 91L663 65L660 97V707H701Z" />
<glyph unicode="O" glyph-name="O" horiz-adv-x="831" d="M54 353Q54 428 82 493T159 608T273 686T414 715Q489 715 555 687T670 609T748 494T777 353Q777 278 749 213T671 98T555 21T414 -8Q339 -8 274 20T160 98T83 212T54 353ZM95 352Q95 286 120 228T188 126T289
57T413 31Q479 31 538 56T641 125T710 227T736 353Q736 419 711 478T642 580T540 649T415 675Q349 675 291 650T189 580T120 478T95 352Z" />
<glyph unicode="P" glyph-name="P" horiz-adv-x="532" d="M153 343H263Q316 343 351 360T406 402T435 457T443 511Q443 544 431 572T395 622T338 656T264 668H153V343ZM111 0V707H268Q305 707 343 696T413 662T465 601T485 510Q485 471 473 434T433 368T364 321T262
303H153V0H111Z" />
<glyph unicode="Q" glyph-name="Q" horiz-adv-x="836" d="M54 353Q54 428 82 493T160 608T274 686T415 715Q490 715 556 687T671 609T749 494T778 353Q778 301 764 253T723 164T661 91T581 37L800 40V0H490Q450 -8 415 -8Q340 -8 275 20T160 98T83 212T54 353ZM96
352Q96 286 121 228T189 126T290 57T414 31Q480 31 538 56T641 125T711 227T737 353Q737 419 712 478T642 580T540 649T415 675Q349 675 291 650T190 580T121 478T96 352Z" />
<glyph unicode="R" glyph-name="R" horiz-adv-x="585" d="M111 0V707H268Q305 707 343 696T413 662T465 601T485 510Q485 451 456 399T363 320Q370 309 386 283T422 223T464 154T505 85T539 30T558 0H508Q504 6 492 27T462 77T424 139T384 205T348 264T321 308Q307
306 293 305T262 303H153V0H111ZM153 343H263Q316 343 351 360T406 404T435 459T443 513Q443 545 431 573T395 622T338 655T264 668H153V343Z" />
<glyph unicode="S" glyph-name="S" horiz-adv-x="541" d="M457 672L442 639Q411 652 368 662T282 673Q244 673 213 663T161 635T128 594T116 543Q116 511 132 489T174 451T234 423T303 397T372 368T432 328T475 272T491 192Q491 146 475 109T427 46T353 6T257
-8Q215 -8 181 0T119 19T73 42T42 60L62 97Q78 86 100 75T148 54T202 38T258 32Q290 32 324 41T386 70T432 120T450 193Q450 233 434 261T392 308T332 342T263 370T194 397T134 430T91 475T75 539Q75 574 89 605T130 660T194 697T276 711Q299 711 324 708T375 699T421
686T457 672Z" />
<glyph unicode="T" glyph-name="T" horiz-adv-x="513" d="M472 707V667H276V0H235V667H41V707H472Z" />
<glyph unicode="U" glyph-name="U" horiz-adv-x="682" d="M341 -8Q290 -8 246 8T170 55T120 131T101 235V707H143V238Q143 190 158 152T199 86T261 45T341 31Q383 31 419 45T482 86T524 151T539 238V707H581V235Q581 177 563 132T512 55T436 8T341 -8Z" />
<glyph unicode="V" glyph-name="V" horiz-adv-x="641" d="M63 707Q91 639 123 559T187 396T250 232T311 84L321 56L330 84Q358 151 390 231T454 395T517 559T578 707H620Q599 658 575 598T524 472T470 338T417 203T366 77T321 -32Q300 17 276 77T225 203T171 337T118
472T67 598T21 707H63Z" />
<glyph unicode="W" glyph-name="W" horiz-adv-x="936" d="M914 706Q889 644 859 569T798 417T738 264T685 128T645 24T624 -32L472 369L464 390Q463 388 461 378Q460 374 458 369Q430 292 404 218Q393 186 381 153T357 86T334 23T314 -32Q238 154 169 337T24 706H70Q91
653 116 589T168 459T218 330T262 216T293 132T308 91Q308 90 309 86T311 77T314 68T316 63L325 90Q325 91 330 107T344 147T364 203T386 267Q412 343 445 439Q419 511 398 568Q389 592 380 616T364 659T353 691T348 706H389Q437 580 480 464Q498 414 517 362T555
261T588 168T615 91L624 63L632 91Q634 98 646 132T678 217T721 331T772 460T823 590T871 706H914Z" />
<glyph unicode="X" glyph-name="X" horiz-adv-x="566" d="M255 363Q233 397 204 442T145 535T85 628T33 707H83L275 409Q277 407 280 401T285 390Q287 395 290 401T295 409Q316 441 340 479T389 558T438 636T483 707H530L309 361L544 0H493L320 267Q311 281 300
300T279 332Q277 327 274 322T269 315L71 0H23Q46 36 76 83T139 181T201 279T255 363Z" />
<glyph unicode="Y" glyph-name="Y" horiz-adv-x="612" d="M327 255V0H285V255Q259 299 224 358T153 481T82 603T21 707H68Q92 667 120 619T178 520T237 418T294 319L307 291L318 319Q345 366 375 417T434 520T491 619T543 707H590L327 255Z" />
<glyph unicode="Z" glyph-name="Z" horiz-adv-x="628" d="M115 707H577L89 40H603V0H17Q68 71 131 160T261 340T390 519T505 673H113Q81 673 63 683T45 723V743H85V730Q85 719 91 713T115 707Z" />
<glyph unicode="[" glyph-name="bracketleft" horiz-adv-x="300" d="M97 -150V749H270V713H135V-114H270V-150H97Z" />
<glyph unicode="\" glyph-name="backslash" horiz-adv-x="402" d="M81 739Q152 548 221 360T360 -19H321Q250 172 181 360T42 739H81Z" />
<glyph unicode="]" glyph-name="bracketright" horiz-adv-x="300" d="M203 749V-150H30V-114H165V713H30V749H203Z" />
<glyph unicode="^" glyph-name="asciicircum" horiz-adv-x="397" d="M199 663L319 481H290L199 613L108 481H78Q109 526 139 571T199 663Z" />
<glyph unicode="_" glyph-name="underscore" horiz-adv-x="536" d="M469 0H67V35H469V0Z" />
<glyph unicode="`" glyph-name="grave" horiz-adv-x="201" d="M12 614L102 481H73L-26 614H12Z" />
<glyph unicode="a" glyph-name="a" horiz-adv-x="514" d="M39 193Q39 235 55 272T98 336T161 380T240 396Q270 396 297 388T346 364T384 330T410 288Q410 313 411 338T414 387H444V0H410V99Q393 55 348 24T240 -7Q197 -7 161 9T97 52T55 115T39 193ZM73 194Q73
159 86 129T121 76T175 40T241 27Q276 27 307 40T361 75T397 128T410 194Q410 229 397 260T361 313T307 349T241 362Q206 362 175 349T122 314T86 260T73 194Z" />
<glyph unicode="b" glyph-name="b" horiz-adv-x="516" d="M476 194Q476 152 461 115T418 51T354 9T274 -7Q215 -7 169 23T104 99Q104 86 104 74T105 48V0H70V758H105V288Q115 310 131 330T170 364T219 387T276 396Q318 396 354 381T418 338T460 274T476 194ZM439
194Q439 229 427 260T392 313T339 349T273 362Q238 362 207 349T154 314T118 260T105 194Q105 159 118 129T153 76T207 40T273 27Q309 27 339 40T391 75T426 128T439 194Z" />
<glyph unicode="c" glyph-name="c" horiz-adv-x="401" d="M346 63Q352 57 357 51T368 37Q342 17 310 5T241 -7Q199 -7 162 9T98 52T55 115T39 194Q39 236 54 273T97 337T162 380T241 396Q278 396 310 384T369 352Q364 345 358 339T346 325Q325 342 298 352T241
362Q205 362 175 349T122 314T86 260T73 194Q73 159 86 129T121 76T174 40T241 27Q271 27 298 36T346 63Z" />
<glyph unicode="d" glyph-name="d" horiz-adv-x="516" d="M40 194Q40 237 55 274T98 338T162 380T241 396Q272 396 299 388T347 364T385 330T411 288V758H446V0H411V47Q411 61 412 74T413 100Q392 55 347 24T240 -7Q197 -7 161 9T97 52T55 115T40 194ZM75 194Q75
159 88 129T123 76T177 40T243 27Q278 27 309 40T362 75T398 128T411 194Q411 229 398 260T363 313T309 349T243 362Q208 362 177 349T124 314T88 260T75 194Z" />
<glyph unicode="e" glyph-name="e" horiz-adv-x="440" d="M382 47Q355 22 319 8T241 -7Q199 -7 162 9T98 52T55 115T39 194Q39 236 55 273T98 337T161 381T240 397Q304 397 349 360T417 264Q381 250 339 233T253 198T166 163T85 130Q104 84 145 56T240 27Q274
27 304 39T356 72L382 47ZM373 274Q355 314 321 338T240 362Q205 362 175 349T122 313T86 260T73 195Q73 184 74 174T78 154Q112 168 150 183T226 214T302 245T373 274Z" />
<glyph unicode="f" glyph-name="f" horiz-adv-x="264" d="M26 351V385H92V517Q92 575 107 619T149 694T212 740T292 758V724Q256 724 226 710T174 669T140 605T127 520V385H257V351H127V0H92V351H26Z" />
<glyph unicode="g" glyph-name="g" horiz-adv-x="516" d="M40 194Q40 236 55 273T98 337T161 380T240 396Q272 396 299 387T349 363T387 329T411 288Q411 313 412 338T415 387H446V0Q446 -38 435 -71T400 -130T338 -171T243 -186Q197 -186 156 -169T66 -106L88
-82Q110 -104 130 -117T170 -138T206 -149T242 -152Q289 -152 321 -141T372 -108T401 -59T411 5V48Q411 50 411 58T412 75T412 92T413 102Q393 56 348 25T240 -7Q198 -7 162 8T98 51T56 115T40 194ZM75 194Q75 159 88 129T123 76T177 40T243 27Q278 27 309 40T362
75T398 128T411 194Q411 229 398 260T363 313T309 349T243 362Q208 362 177 349T124 314T88 260T75 194Z" />
<glyph unicode="h" glyph-name="h" horiz-adv-x="457" d="M70 758H104V293Q124 338 166 366T267 395Q323 396 356 364T391 280V0H356V274Q354 309 331 334T264 361Q231 361 202 350T152 320T117 274T104 216V0H70V758Z" />
<glyph unicode="i" glyph-name="i" horiz-adv-x="174" d="M58 522Q58 535 67 544T88 553Q99 553 108 544T117 522Q117 509 108 501T88 492Q76 492 67 500T58 522ZM104 0H70V387H104V0Z" />
<glyph unicode="j" glyph-name="j" horiz-adv-x="174" d="M39 -186L13 -162Q39 -135 54 -97T70 -7V387H104V-5Q104 -65 87 -110T39 -186ZM58 522Q58 535 67 544T88 553Q100 553 109 544T118 522Q118 509 109 501T88 492Q76 492 67 500T58 522Z" />
<glyph unicode="k" glyph-name="k" horiz-adv-x="384" d="M324 397L345 375L199 237Q243 177 286 119T372 0H331Q292 54 253 107T174 214L104 148V0H70V758H104V192Q161 245 214 294T324 397Z" />
<glyph unicode="l" glyph-name="l" horiz-adv-x="183" d="M109 0H74V758H109V0Z" />
<glyph unicode="m" glyph-name="m" horiz-adv-x="739" d="M70 387H98Q98 383 98 368T99 336T100 305T101 287Q122 335 164 365T265 395Q317 395 349 367T387 292Q410 338 451 366T549 395Q606 395 638 363T673 280V0H638V274Q636 309 613 334T546 361Q514 361
486 351T437 322T402 278T388 221V0H354V274Q352 309 329 334T262 361Q229 361 201 350T151 320T117 274T104 216V0H70V387Z" />
<glyph unicode="n" glyph-name="n" horiz-adv-x="457" d="M70 387H99Q99 383 99 368T100 336T100 305T101 287Q122 335 166 365T268 395Q324 395 356 363T391 280V0H356V274Q354 309 331 334T264 361Q231 361 202 350T152 320T117 274T104 216V0H70V387Z" />
<glyph unicode="o" glyph-name="o" horiz-adv-x="485" d="M40 194Q40 236 56 273T99 337T164 381T243 397Q285 397 322 381T386 338T430 273T446 194Q446 152 430 116T387 52T322 9T242 -7Q200 -7 163 8T99 51T56 114T40 194ZM75 194Q75 159 88 129T123 76T176
40T242 27Q277 27 307 40T361 75T397 128T410 194Q410 229 397 259T361 313T308 349T242 362Q207 362 177 349T124 313T88 260T75 194Z" />
<glyph unicode="p" glyph-name="p" horiz-adv-x="516" d="M439 194Q439 229 427 260T392 313T339 349T273 362Q238 362 207 349T154 314T118 260T105 194Q105 159 118 129T153 76T207 40T273 27Q309 27 339 40T391 75T426 128T439 194ZM476 194Q476 152 461 115T418
51T354 9T274 -7Q215 -7 169 23T104 99Q104 86 104 74T105 48V-186H70V387H104Q104 385 104 374T104 348T105 317T105 288Q115 310 131 330T170 364T219 387T276 396Q318 396 354 381T418 338T460 274T476 194Z" />
<glyph unicode="q" glyph-name="q" horiz-adv-x="516" d="M75 194Q75 159 88 129T123 76T177 40T243 27Q278 27 309 40T362 75T398 128T411 194Q411 229 398 260T363 313T309 349T243 362Q208 362 177 349T124 314T88 260T75 194ZM40 194Q40 237 55 274T98 338T162
380T241 396Q272 396 299 388T347 364T385 330T411 288Q411 300 411 316T411 348T412 374T412 387H446V-186H411V47Q411 61 412 74T413 100Q392 55 347 24T240 -7Q197 -7 161 9T97 52T55 115T40 194Z" />
<glyph unicode="r" glyph-name="r" horiz-adv-x="271" d="M262 354Q231 353 203 343T152 315T117 271T104 214V0H70V387H99Q99 383 99 368T100 336T100 305T101 287Q124 337 170 365T268 395L262 354Z" />
<glyph unicode="s" glyph-name="s" horiz-adv-x="318" d="M265 349L245 325Q233 340 208 349T161 359Q149 359 136 356T111 344T93 324T85 293Q85 268 99 253T135 228T182 209T229 188T265 157T280 106Q280 83 272 63T248 26T210 1T157 -8Q126 -8 92 3T36 40Q42
46 49 54T59 65Q64 58 75 51T100 39T130 30T158 26Q170 26 185 30T213 43T236 67T246 103Q246 129 232 144T195 170T148 188T101 208T65 240T50 292Q50 318 60 337T85 368T120 387T160 393Q184 393 213 383T265 349Z" />
<glyph unicode="t" glyph-name="t" horiz-adv-x="268" d="M100 557H135V381H257V350H135V0H100V350H15V381H100V557Z" />
<glyph unicode="u" glyph-name="u" horiz-adv-x="457" d="M387 -3H359L356 101Q335 52 291 22T189 -8Q133 -8 101 24T66 108V387H100V114Q102 79 125 54T193 26Q226 26 254 37T305 67T339 112T352 171V387H387V-3Z" />
<glyph unicode="v" glyph-name="v" horiz-adv-x="408" d="M204 -24Q178 28 155 79T109 182T63 284T14 387H51Q78 334 98 289T135 202T169 122T204 44Q222 83 238 121T271 201T309 288T356 387H394Q342 284 299 182T204 -24Z" />
<glyph unicode="w" glyph-name="w" horiz-adv-x="633" d="M296 290L253 387H284Q330 285 366 202T435 44Q451 85 468 125T504 206T542 292T584 387H619Q572 284 526 181T435 -24Q403 47 374 116T313 256L197 -24L16 387H51Q73 337 92 293T129 207T163 125T197
44Q218 97 241 155T296 290Z" />
<glyph unicode="x" glyph-name="x" horiz-adv-x="370" d="M163 197Q128 245 93 292T24 387H66Q97 344 126 305T185 223Q215 266 244 305T303 387H342Q307 336 274 291T205 195Q240 147 277 98T348 0H306Q275 42 245 83T182 166Q153 124 124 83T64 0H24L163 197Z" />
<glyph unicode="y" glyph-name="y" horiz-adv-x="419" d="M145 -186H107Q119 -161 128 -140T145 -96T164 -50T188 8Q142 101 102 197T15 387H52Q79 334 100 288T139 198T174 115T209 36Q227 75 244 115T279 197T317 287T365 387H403L145 -186Z" />
<glyph unicode="z" glyph-name="z" horiz-adv-x="372" d="M340 0H28L282 356H94Q62 356 45 367T28 409V424H60V411Q60 387 93 387H344L92 34H340V0Z" />
<glyph unicode="{" glyph-name="braceleft" horiz-adv-x="286" d="M33 278V321Q57 322 72 335T97 369T109 412T113 456V631Q113 677 121 701T142 735T173 747T209 749H255V713H202Q170 713 160 690T149 604V460Q149 418 144 391T129 345T107 317T83 300Q95 293
107 283T128 254T143 209T149 140V-4Q149 -66 159 -89T202 -113H255V-149H209Q188 -149 171 -148T140 -133T120 -91T113 -6V143Q113 163 110 186T97 230T73 263T33 278Z" />
<glyph unicode="|" glyph-name="bar" horiz-adv-x="230" d="M97 -233V703H133V-233H97Z" />
<glyph unicode="}" glyph-name="braceright" horiz-adv-x="286" d="M252 321V278Q223 277 207 259T184 215T175 163T173 118V-30Q173 -77 165 -101T144 -136T113 -148T76 -149H31V-113H84Q115 -113 125 -90T136 -4V165Q136 198 143 221T160 260T181 285T202 300Q190
307 178 317T157 345T142 390T136 460V604Q136 666 126 689T84 713H31V749H76Q95 749 112 748T143 737T165 702T173 631V481Q173 463 174 436T183 384T207 341T252 321Z" />
<glyph unicode="~" glyph-name="asciitilde" horiz-adv-x="468" d="M226 494Q210 511 198 517T172 523Q164 523 155 521T136 513T119 497T110 470L87 473Q88 492 96 506T116 529T143 542T172 547Q193 547 210 537T244 510Q260 493 272 487T298 481Q305 481 315
483T334 491T351 507T360 534L383 531Q382 512 374 499T354 476T327 463T298 458Q277 458 260 467T226 494Z" />
<glyph unicode="&#xa1;" glyph-name="exclamdown" horiz-adv-x="232" d="M98 375H134V-211H98V375ZM116 517Q128 517 137 509T146 487Q146 473 137 465T116 456Q105 456 96 464T87 487Q87 500 96 508T116 517Z" />
<glyph unicode="&#xa2;" glyph-name="cent" horiz-adv-x="423" d="M351 63Q357 57 362 51T373 37Q347 17 316 6T248 -7V-68H220V-5Q182 -1 150 16T95 60T58 121T44 194Q44 233 57 267T94 328T150 372T220 394V452H248V396Q284 395 316 384T374 352Q369 345 363
339T351 325Q330 342 304 351T248 362V27Q277 27 303 36T351 63ZM78 194Q78 162 88 134T118 84T163 47T220 28V360Q189 355 163 341T118 304T89 254T78 194Z" />
<glyph unicode="&#xa3;" glyph-name="sterling" horiz-adv-x="575" d="M153 35H377Q439 35 463 46T487 88V141H523V86Q523 69 521 54T508 26T472 7T405 0H43V35H87Q104 35 114 41T130 62T137 104T139 170V300H74V336H139V512Q139 583 187 619T314 655Q382 655
420 630T479 562Q472 557 466 554T452 546Q441 564 430 577T404 600T367 614T315 619Q276 619 250 611T207 587T183 552T176 508V336H302V300H176V127Q176 98 172 74T153 35Z" />
<glyph unicode="&#xa4;" glyph-name="currency" horiz-adv-x="454" d="M89 361Q89 385 97 406T119 446L84 481L104 501L139 466Q157 481 179 490T227 499Q253 499 275 490T315 465L350 500L370 481L335 446Q365 410 365 361Q365 335 356 313T333 273L370 235L350
215L312 253Q276 223 227 223Q203 223 181 230T142 252L104 214L84 234L122 272Q89 310 89 361ZM117 361Q117 338 125 318T149 283T184 259T227 250Q250 250 270 259T305 283T328 318T337 361Q337 384 329 404T305 439T270 463T227 472Q204 472 184 463T149 439T126
404T117 361Z" />
<glyph unicode="&#xa5;" glyph-name="yen" horiz-adv-x="632" d="M337 255V127H486V100H337V0H295V100H153V127H295V255Q291 258 290 263H153V290H274Q247 335 215 391T149 504T86 614T31 707H78Q102 667 130 619T188 520T247 418T304 319L317 291L328 319Q355
366 385 417T444 520T501 619T553 707H600L357 290H486V263H341L337 255Z" />
<glyph unicode="&#xa6;" glyph-name="brokenbar" horiz-adv-x="232" d="M134 -234H98V117H134V-234ZM134 351H98V703H134V351Z" />
<glyph unicode="&#xa7;" glyph-name="section" horiz-adv-x="365" d="M163 153Q130 207 112 239T78 298Q66 319 63 343T64 389T82 432T115 465Q138 479 164 480T215 472Q200 496 187 520T159 569Q143 596 136 616T129 651T134 676T148 695Q160 710 182 721T221
743L239 713Q227 705 216 699T192 686Q166 671 168 647T199 573L287 422Q300 401 303 378T301 332T283 290T249 257Q226 243 200 241T149 249L206 151Q222 124 229 104T236 69T231 44T217 25Q205 9 184 -2T145 -23L126 8L173 35Q199 50 197 75T163 153ZM105 328Q114
301 138 287T191 274Q209 275 224 283T250 305T266 335T269 369Q265 408 236 430T173 450Q149 448 132 436T106 407T97 368T105 328Z" />
<glyph unicode="&#xa8;" glyph-name="dieresis" horiz-adv-x="372" d="M244 508Q244 522 253 530T274 539Q286 539 295 531T304 508Q304 495 295 487T274 478Q262 478 253 486T244 508ZM72 508Q72 522 81 530T102 539Q114 539 123 531T132 508Q132 495 123 487T102
478Q90 478 81 486T72 508Z" />
<glyph unicode="&#xa9;" glyph-name="copyright" horiz-adv-x="654" d="M327 117Q273 117 226 136T145 189T90 270T70 372Q70 427 90 474T144 555T226 609T327 628Q381 628 428 609T509 556T564 474T584 372Q584 317 564 270T510 189T428 136T327 117ZM326 135Q375
135 418 153T494 202T545 277T564 371Q564 423 546 466T495 542T419 592T326 610Q277 610 234 592T159 542T109 467T90 371Q90 321 108 278T159 203T234 153T326 135ZM422 235Q406 225 384 218T333 211Q297 211 267 224T216 259T184 311T172 373Q172 408 185 438T220
491T272 526T336 539Q360 539 382 533T420 516L411 501Q395 511 376 516T336 521Q306 521 280 510T234 478T203 431T191 374Q191 345 201 319T229 273T274 242T333 230Q358 230 378 237T413 252L422 235Z" />
<glyph unicode="&#xaa;" glyph-name="ordfeminine" horiz-adv-x="424" d="M54 445Q54 475 65 502T96 549T142 580T199 592Q243 592 275 569T321 514Q321 532 322 550T324 585H346V306H321V377Q309 346 277 324T199 301Q168 301 142 312T96 343T65 389T54 445ZM78
446Q78 421 87 399T113 361T152 335T200 325Q225 325 247 334T285 360T311 399T321 446Q321 471 312 493T286 532T247 557T200 567Q174 567 152 558T114 532T88 494T78 446Z" />
<glyph unicode="&#xab;" glyph-name="guillemotleft" horiz-adv-x="456" d="M392 69L220 240Q237 256 259 278T306 324T352 370T392 410V368Q363 339 331 304T270 240Q298 211 330 176T392 111V69ZM220 69L48 240Q65 256 87 278T134 324T180 370T220 410V368Q191
339 159 304T98 240Q127 211 159 176T220 111V69Z" />
<glyph unicode="&#xac;" glyph-name="logicalnot" horiz-adv-x="530" d="M418 149V215H93V244H455V149H418Z" />
<glyph unicode="&#xae;" glyph-name="registered" horiz-adv-x="654" d="M327 117Q273 117 226 136T145 189T90 270T70 372Q70 427 90 474T144 555T226 609T327 628Q381 628 428 609T509 556T564 474T584 372Q584 317 564 270T510 189T428 136T327 117ZM326 135Q375
135 418 153T494 202T545 277T564 371Q564 423 546 466T495 542T419 592T326 610Q277 610 234 592T159 542T109 467T90 371Q90 321 108 278T159 203T234 153T326 135ZM252 210V544H326Q343 544 361 539T394 523T418 494T428 451Q428 423 414 398T370 361Q375 353
389 331T418 283T446 236T463 210H439Q436 214 425 233T400 275T372 320T351 355Q344 354 338 354T323 353H271V210H252ZM271 372H323Q348 372 364 380T390 401T404 427T408 453Q408 483 385 504T324 526H271V372Z" />
<glyph unicode="&#xaf;" glyph-name="overscore" horiz-adv-x="401" d="M85 489V516H316V489H85Z" />
<glyph unicode="&#xb0;" glyph-name="degree" horiz-adv-x="288" d="M145 504Q168 504 185 520T203 562Q203 587 186 603T145 620Q120 620 103 604T86 562Q86 537 103 521T145 504ZM59 562Q59 598 83 622T145 646Q180 646 204 622T228 562Q228 526 204 502T145
478Q108 478 84 502T59 562Z" />
<glyph unicode="&#xb1;" glyph-name="plusminus" horiz-adv-x="541" d="M252 212V375H89V411H252V573H288V411H451V375H288V212H252ZM451 121H89V157H451V121Z" />
<glyph unicode="&#xb2;" glyph-name="twosuperior" horiz-adv-x="343" d="M117 392H278V375H73Q105 406 134 435T187 493T224 548T238 597Q238 622 231 638T213 665T189 679T164 684Q141 684 127 676T104 656T93 630T89 605Q89 572 108 550L97 539Q71 565 71 605Q71
646 95 673T164 701Q206 701 231 673T256 603Q256 576 244 549T211 496T166 443T117 392Z" />
<glyph unicode="&#xb3;" glyph-name="threesuperior" horiz-adv-x="297" d="M105 553Q128 586 152 618T200 684H71V702H233Q210 671 187 641T142 579Q184 577 212 549T240 478Q240 457 232 439T210 406T177 384T137 376Q114 376 95 385T61 410L75 423Q86 410 101
402T136 393Q154 393 169 400T197 418T216 445T223 478Q223 496 216 511T197 538T170 556T136 563Q120 563 105 553Z" />
<glyph unicode="&#xb4;" glyph-name="acute" horiz-adv-x="237" d="M100 481Q123 514 145 547T191 614H229L130 481H100Z" />
<glyph unicode="&#xb5;" glyph-name="mu" horiz-adv-x="515" d="M414 -3H386L383 101Q362 52 318 22T216 -8Q160 -8 127 25V-201H94V93Q93 98 93 108V387H127V114Q129 79 152 54T220 26Q253 26 281 37T332 67T366 112T379 171V387H414V-3Z" />
<glyph unicode="&#xb6;" glyph-name="paragraph" horiz-adv-x="522" d="M239 0H203V425Q168 425 139 437T87 472T52 524T39 588Q39 622 51 652T86 705T138 740T203 753H403V0H367V718H239V0Z" />
<glyph unicode="&#xb7;" glyph-name="middot" horiz-adv-x="193" d="M67 281Q67 294 76 303T97 312Q109 312 118 303T127 281Q127 268 118 260T97 251Q85 251 76 259T67 281Z" />
<glyph unicode="&#xb8;" glyph-name="cedilla" horiz-adv-x="454" d="M191 0H217V-6Q217 -20 221 -28T231 -43T244 -53T258 -61Q281 -77 290 -96T299 -132Q299 -181 273 -207T208 -233Q179 -233 155 -217T119 -169Q126 -167 132 -164T144 -158Q150 -178 166 -190T206
-203Q235 -203 252 -184T270 -136Q270 -111 258 -97T231 -73T204 -52T191 -22V0Z" />
<glyph unicode="&#xb9;" glyph-name="onesuperior" horiz-adv-x="186" d="M47 685V701H109V401H92V685H47Z" />
<glyph unicode="&#xba;" glyph-name="ordmasculine" horiz-adv-x="401" d="M54 446Q54 476 65 503T96 549T143 580T200 592Q231 592 257 581T304 550T335 503T347 446Q347 416 336 390T304 344T257 313T199 301Q169 301 143 312T97 342T66 388T54 446ZM79 446Q79
421 88 399T114 361T152 335T199 325Q224 325 246 334T285 360T311 399T321 446Q321 471 312 493T286 531T247 557T199 567Q174 567 152 558T114 532T89 493T79 446Z" />
<glyph unicode="&#xbb;" glyph-name="guillemotright" horiz-adv-x="456" d="M64 111Q93 140 125 175T186 240Q158 269 126 304T64 368V410Q81 393 103 371T150 325T196 279T236 240L64 69V111ZM236 111Q265 140 297 175T358 240Q329 269 297 304T236 368V410Q253
393 275 371T322 325T368 279T408 240L236 69V111Z" />
<glyph unicode="&#xbc;" glyph-name="onequarter" horiz-adv-x="789" d="M400 133Q469 223 539 313T678 492V160H750V133H678V0H650V133H400ZM190 -19L469 738H506L226 -19H190ZM650 417L454 160H650V417ZM38 672V697H135V234H108V672H38Z" />
<glyph unicode="&#xbd;" glyph-name="onehalf" horiz-adv-x="829" d="M561 25H790V0H498Q543 44 585 86T661 169T714 246T734 318Q734 353 724 377T698 415T664 436T629 442Q596 442 575 431T542 402T526 366T521 330Q521 304 528 285T549 251L533 236Q515 253
505 277T495 330Q495 358 503 383T529 427T571 457T629 468Q658 468 682 457T723 427T749 382T759 326Q759 287 741 249T695 173T631 98T561 25ZM204 -19L483 738H520L240 -19H204ZM38 672V697H135V234H108V672H38Z" />
<glyph unicode="&#xbe;" glyph-name="threequarters" horiz-adv-x="987" d="M597 133Q666 223 736 313T876 492V160H948V133H876V0H848V133H597ZM118 477Q154 529 192 580T267 683H64V710H317Q282 662 246 614T175 518Q207 516 235 504T284 471T317 422T329 360Q329
327 316 298T282 247T231 213T168 200Q132 200 102 214T49 252L70 273Q87 253 112 240T166 227Q194 227 218 238T261 267T290 309T301 360Q301 388 291 412T262 455T219 483T166 493Q140 493 118 477ZM359 -19L638 739H675Q604 548 535 360T395 -19H359ZM848 417L651
160H848V417Z" />
<glyph unicode="&#xbf;" glyph-name="questiondown" horiz-adv-x="479" d="M409 -45L442 -56Q433 -83 417 -108T376 -152T321 -184T251 -196Q210 -196 174 -181T112 -139T70 -77T54 0Q54 54 80 95T153 169Q171 182 187 192T216 214T237 246T245 296V374H281V277Q281
246 270 227T242 193T201 164T154 129Q91 76 91 0Q91 -35 103 -64T136 -114T187 -148T251 -160Q310 -160 351 -130T409 -45ZM264 522Q275 522 284 514T293 492Q293 478 284 470T264 461Q253 461 244 469T234 492Q234 505 243 513T264 522Z" />
<glyph unicode="&#xc0;" glyph-name="Agrave" horiz-adv-x="640" d="M620 0Q599 49 575 109T524 235T470 369T417 504T366 630T321 740Q300 691 276 631T225 504T171 370T118 235T67 109T21 0H63Q89 63 118 136T177 287H463Q493 209 522 136T578 0H620ZM311 623Q313
628 316 636T321 652L330 623Q357 557 387 481T449 323H191Q223 404 253 480T311 623ZM250 888L340 755H311L212 888H250Z" />
<glyph unicode="&#xc1;" glyph-name="Aacute" horiz-adv-x="640" d="M620 0Q599 49 575 109T524 235T470 369T417 504T366 630T321 740Q300 691 276 631T225 504T171 370T118 235T67 109T21 0H63Q89 63 118 136T177 287H463Q493 209 522 136T578 0H620ZM311 623Q313
628 316 636T321 652L330 623Q357 557 387 481T449 323H191Q223 404 253 480T311 623ZM301 755Q324 788 346 821T392 888H430L331 755H301Z" />
<glyph unicode="&#xc2;" glyph-name="Acircumflex" horiz-adv-x="640" d="M620 0Q599 49 575 109T524 235T470 369T417 504T366 630T321 740Q300 691 276 631T225 504T171 370T118 235T67 109T21 0H63Q89 63 118 136T177 287H463Q493 209 522 136T578 0H620ZM311
623Q313 628 316 636T321 652L330 623Q357 557 387 481T449 323H191Q223 404 253 480T311 623ZM354 937L474 755H445L354 887L263 755H233Q264 800 294 845T354 937Z" />
<glyph unicode="&#xc3;" glyph-name="Atilde" horiz-adv-x="640" d="M620 0Q599 49 575 109T524 235T470 369T417 504T366 630T321 740Q300 691 276 631T225 504T171 370T118 235T67 109T21 0H63Q89 63 118 136T177 287H463Q493 209 522 136T578 0H620ZM311 623Q313
628 316 636T321 652L330 623Q357 557 387 481T449 323H191Q223 404 253 480T311 623ZM313 789Q297 806 285 812T259 818Q251 818 242 816T223 808T206 792T197 765L174 768Q175 787 183 801T203 824T230 837T259 842Q280 842 297 832T331 805Q347 788 359 782T385
776Q392 776 402 778T421 786T438 802T447 829L470 826Q469 807 461 794T441 771T414 758T385 753Q364 753 347 762T313 789Z" />
<glyph unicode="&#xc4;" glyph-name="Adieresis" horiz-adv-x="640" d="M620 0Q599 49 575 109T524 235T470 369T417 504T366 630T321 740Q300 691 276 631T225 504T171 370T118 235T67 109T21 0H63Q89 63 118 136T177 287H463Q493 209 522 136T578 0H620ZM311
623Q313 628 316 636T321 652L330 623Q357 557 387 481T449 323H191Q223 404 253 480T311 623ZM377 801Q377 815 386 823T407 832Q419 832 428 824T437 801Q437 788 428 780T407 771Q395 771 386 779T377 801ZM205 801Q205 815 214 823T235 832Q247 832 256 824T265
801Q265 788 256 780T235 771Q223 771 214 779T205 801Z" />
<glyph unicode="&#xc5;" glyph-name="Aring" horiz-adv-x="640" d="M578 0Q552 63 523 136T463 287H177Q147 209 118 136T63 0H21Q42 49 66 109T117 235T171 369T224 504T275 630T321 740Q341 691 365 631T416 504T470 370T523 235T574 109T620 0H578ZM311 623Q283
557 253 481T191 323H449Q418 404 388 480T330 623L321 652Q319 644 316 636T311 623ZM252 838Q252 867 272 887T322 908Q351 908 371 888T391 838Q391 809 371 789T322 769Q293 769 273 789T252 838ZM277 838Q277 820 290 807T322 793Q340 793 353 806T367 838Q367
856 354 869T322 883Q303 883 290 870T277 838Z" />
<glyph unicode="&#xc6;" glyph-name="AE" horiz-adv-x="654" d="M308 0V287H178Q148 209 119 136T64 0H22Q53 73 90 165T165 353T240 541T308 707H595V669H347V375H555V337H347V39H609V0H308ZM308 613Q281 549 252 474T192 321H308V613Z" />
<glyph unicode="&#xc7;" glyph-name="Ccedilla" horiz-adv-x="644" d="M608 45Q573 24 526 9T420 -8Q420 -21 424 -29T434 -43T447 -53T461 -61Q484 -77 493 -96T502 -132Q502 -181 476 -207T411 -233Q382 -233 358 -217T322 -169Q329 -167 335 -164T347 -158Q353
-178 369 -190T409 -203Q438 -203 455 -184T473 -136Q473 -111 461 -97T434 -73T407 -51T394 -18V-7Q317 -4 254 25T147 103T79 215T55 349Q55 427 83 493T161 609T276 687T417 715Q471 715 520 702T604 665Q598 656 595 651T584 632Q549 654 506 665T419 676Q352
676 293 651T191 581T122 477T96 351Q96 288 118 231T182 130T282 60T412 34Q467 34 513 48T589 82L608 45Z" />
<glyph unicode="&#xc8;" glyph-name="Egrave" horiz-adv-x="611" d="M111 0V707H544V669H153V375H504V337H153V39H558V0H111ZM293 888L383 755H354L255 888H293Z" />
<glyph unicode="&#xc9;" glyph-name="Eacute" horiz-adv-x="611" d="M111 0V707H544V669H153V375H504V337H153V39H558V0H111ZM305 755Q328 788 350 821T396 888H434L335 755H305Z" />
<glyph unicode="&#xca;" glyph-name="Ecircumflex" horiz-adv-x="611" d="M111 0V707H544V669H153V375H504V337H153V39H558V0H111ZM333 937L453 755H424L333 887L242 755H212Q243 800 273 845T333 937Z" />
<glyph unicode="&#xcb;" glyph-name="Edieresis" horiz-adv-x="611" d="M111 0V707H544V669H153V375H504V337H153V39H558V0H111ZM394 801Q394 815 403 823T424 832Q436 832 445 824T454 801Q454 788 445 780T424 771Q412 771 403 779T394 801ZM222 801Q222 815
231 823T252 832Q264 832 273 824T282 801Q282 788 273 780T252 771Q240 771 231 779T222 801Z" />
<glyph unicode="&#xcc;" glyph-name="Igrave" horiz-adv-x="263" d="M111 707H152V0H111V707ZM70 888L160 755H131L32 888H70Z" />
<glyph unicode="&#xcd;" glyph-name="Iacute" horiz-adv-x="263" d="M111 707H152V0H111V707ZM101 755Q124 788 146 821T192 888H230L131 755H101Z" />
<glyph unicode="&#xce;" glyph-name="Icircumflex" horiz-adv-x="263" d="M111 707H152V0H111V707ZM133 937L253 755H224L133 887L42 755H12Q43 800 73 845T133 937Z" />
<glyph unicode="&#xcf;" glyph-name="Idieresis" horiz-adv-x="263" d="M111 707H152V0H111V707ZM188 801Q188 815 197 823T218 832Q230 832 239 824T248 801Q248 788 239 780T218 771Q206 771 197 779T188 801ZM16 801Q16 815 25 823T46 832Q58 832 67 824T76
801Q76 788 67 780T46 771Q34 771 25 779T16 801Z" />
<glyph unicode="&#xd0;" glyph-name="Eth" horiz-adv-x="718" d="M56 369H118V707H272Q379 707 453 675T573 591T641 476T662 351Q662 270 634 206T557 95T443 25T306 0H118V338H56V369ZM306 40Q371 40 428 61T528 123T596 222T621 353Q621 412 601 468T539 569T434
639T287 666H159V369H342V338H159V40H306Z" />
<glyph unicode="&#xd1;" glyph-name="Ntilde" horiz-adv-x="811" d="M700 707V-32Q643 39 572 123T429 294T288 464T168 617L149 643L152 611V0H110V740Q168 667 237 583T379 413T519 244T643 91L662 65L659 97V707H700ZM407 790Q391 807 379 813T353 819Q345
819 336 817T317 809T300 793T291 766L268 769Q269 788 277 802T297 825T324 838T353 843Q374 843 391 833T425 806Q441 789 453 783T479 777Q486 777 496 779T515 787T532 803T541 830L564 827Q563 808 555 795T535 772T508 759T479 754Q458 754 441 763T407 790Z"
/>
<glyph unicode="&#xd2;" glyph-name="Ograve" horiz-adv-x="831" d="M54 353Q54 428 82 493T159 608T273 686T414 715Q489 715 555 687T670 609T748 494T777 353Q777 278 749 213T671 98T555 21T414 -8Q339 -8 274 20T160 98T83 212T54 353ZM95 352Q95 286 120
228T188 126T289 57T413 31Q479 31 538 56T641 125T710 227T736 353Q736 419 711 478T642 580T540 649T415 675Q349 675 291 650T189 580T120 478T95 352ZM348 888L438 755H409L310 888H348Z" />
<glyph unicode="&#xd3;" glyph-name="Oacute" horiz-adv-x="831" d="M54 353Q54 428 82 493T159 608T273 686T414 715Q489 715 555 687T670 609T748 494T777 353Q777 278 749 213T671 98T555 21T414 -8Q339 -8 274 20T160 98T83 212T54 353ZM95 352Q95 286 120
228T188 126T289 57T413 31Q479 31 538 56T641 125T710 227T736 353Q736 419 711 478T642 580T540 649T415 675Q349 675 291 650T189 580T120 478T95 352ZM379 755Q402 788 424 821T470 888H508L409 755H379Z" />
<glyph unicode="&#xd4;" glyph-name="Ocircumflex" horiz-adv-x="831" d="M54 353Q54 428 82 493T159 608T273 686T414 715Q489 715 555 687T670 609T748 494T777 353Q777 278 749 213T671 98T555 21T414 -8Q339 -8 274 20T160 98T83 212T54 353ZM95 352Q95 286
120 228T188 126T289 57T413 31Q479 31 538 56T641 125T710 227T736 353Q736 419 711 478T642 580T540 649T415 675Q349 675 291 650T189 580T120 478T95 352ZM408 937L528 755H499L408 887L317 755H287Q318 800 348 845T408 937Z" />
<glyph unicode="&#xd5;" glyph-name="Otilde" horiz-adv-x="831" d="M54 353Q54 428 82 493T159 608T273 686T414 715Q489 715 555 687T670 609T748 494T777 353Q777 278 749 213T671 98T555 21T414 -8Q339 -8 274 20T160 98T83 212T54 353ZM95 352Q95 286 120
228T188 126T289 57T413 31Q479 31 538 56T641 125T710 227T736 353Q736 419 711 478T642 580T540 649T415 675Q349 675 291 650T189 580T120 478T95 352ZM396 824Q380 841 368 847T342 853Q334 853 325 851T306 843T289 827T280 800L257 803Q258 822 266 836T286
859T313 872T342 877Q363 877 380 867T414 840Q430 823 442 817T468 811Q475 811 485 813T504 821T521 837T530 864L553 861Q552 842 544 829T524 806T497 793T468 788Q447 788 430 797T396 824Z" />
<glyph unicode="&#xd6;" glyph-name="Odieresis" horiz-adv-x="831" d="M54 353Q54 428 82 493T159 608T273 686T414 715Q489 715 555 687T670 609T748 494T777 353Q777 278 749 213T671 98T555 21T414 -8Q339 -8 274 20T160 98T83 212T54 353ZM95 352Q95 286
120 228T188 126T289 57T413 31Q479 31 538 56T641 125T710 227T736 353Q736 419 711 478T642 580T540 649T415 675Q349 675 291 650T189 580T120 478T95 352ZM466 801Q466 815 475 823T496 832Q508 832 517 824T526 801Q526 788 517 780T496 771Q484 771 475 779T466
801ZM294 801Q294 815 303 823T324 832Q336 832 345 824T354 801Q354 788 345 780T324 771Q312 771 303 779T294 801Z" />
<glyph unicode="&#xd7;" glyph-name="multiply" horiz-adv-x="428" d="M328 0L213 114L100 0L71 30L184 144L71 257L100 287L214 174L328 287Q336 280 343 273T357 258L244 144Q273 115 301 87T358 30L328 0Z" />
<glyph unicode="&#xd8;" glyph-name="Oslash" horiz-adv-x="831" d="M54 353Q54 428 82 493T159 608T273 686T414 715Q474 715 527 697T626 646L689 721L710 701L649 628Q708 578 742 507T777 353Q777 278 749 213T671 98T555 21T414 -8Q348 -8 289 14T183 76L116
-5L95 14L163 95Q112 144 83 210T54 353ZM208 106Q250 71 302 51T413 31Q479 31 538 56T641 125T710 227T736 353Q736 426 706 489T623 597Q577 543 524 480T416 352T308 224T208 106ZM95 352Q95 285 120 227T188 125Q234 179 287 242T394 370T502 498T600 615Q561
643 514 659T415 675Q349 675 291 650T189 580T120 478T95 352Z" />
<glyph unicode="&#xd9;" glyph-name="Ugrave" horiz-adv-x="684" d="M342 -8Q291 -8 247 8T171 55T121 131T102 235V707H144V238Q144 190 159 152T200 86T262 45T342 31Q384 31 420 45T483 86T525 151T540 238V707H582V235Q582 177 564 132T513 55T437 8T342 -8ZM286
888L376 755H347L248 888H286Z" />
<glyph unicode="&#xda;" glyph-name="Uacute" horiz-adv-x="684" d="M342 -8Q291 -8 247 8T171 55T121 131T102 235V707H144V238Q144 190 159 152T200 86T262 45T342 31Q384 31 420 45T483 86T525 151T540 238V707H582V235Q582 177 564 132T513 55T437 8T342 -8ZM315
755Q338 788 360 821T406 888H444L345 755H315Z" />
<glyph unicode="&#xdb;" glyph-name="Ucircumflex" horiz-adv-x="684" d="M342 -8Q291 -8 247 8T171 55T121 131T102 235V707H144V238Q144 190 159 152T200 86T262 45T342 31Q384 31 420 45T483 86T525 151T540 238V707H582V235Q582 177 564 132T513 55T437 8T342
-8ZM350 943L470 761H441L350 893L259 761H229Q260 806 290 851T350 943Z" />
<glyph unicode="&#xdc;" glyph-name="Udieresis" horiz-adv-x="684" d="M342 -8Q291 -8 247 8T171 55T121 131T102 235V707H144V238Q144 190 159 152T200 86T262 45T342 31Q384 31 420 45T483 86T525 151T540 238V707H582V235Q582 177 564 132T513 55T437 8T342
-8ZM410 801Q410 815 419 823T440 832Q452 832 461 824T470 801Q470 788 461 780T440 771Q428 771 419 779T410 801ZM238 801Q238 815 247 823T268 832Q280 832 289 824T298 801Q298 788 289 780T268 771Q256 771 247 779T238 801Z" />
<glyph unicode="&#xdd;" glyph-name="Yacute" horiz-adv-x="612" d="M327 255V0H285V255Q259 299 224 358T153 481T82 603T21 707H68Q92 667 120 619T178 520T237 418T294 319L307 291L318 319Q345 366 375 417T434 520T491 619T543 707H590L327 255ZM288 755Q311
788 333 821T379 888H417L318 755H288Z" />
<glyph unicode="&#xde;" glyph-name="Thorn" horiz-adv-x="521" d="M111 0V703H153V551H268Q305 551 343 540T413 506T465 445T485 354Q485 315 473 278T433 212T364 165T262 147H153V0H111ZM153 187H263Q316 187 351 204T406 246T435 301T443 355Q443 388 431
416T395 466T338 500T264 512H153V187Z" />
<glyph unicode="&#xdf;" glyph-name="germandbls" horiz-adv-x="534" d="M182 18L197 49Q215 38 236 32T281 26Q317 26 349 40T404 78T442 133T456 200Q456 235 443 266T405 320T350 356T282 370V406Q305 406 325 413T361 434T385 467T394 511Q394 533 387 553T364
590T325 615T271 625Q197 625 161 572T125 428V0H89V360H24V395H89V427Q89 538 136 598T263 660Q309 660 341 648T392 615T421 569T430 516Q430 470 408 438T347 391Q376 384 402 367T449 324T480 267T492 199Q492 156 476 119T431 53T364 9T282 -8Q226 -8 182
18Z" />
<glyph unicode="&#xe0;" glyph-name="agrave" horiz-adv-x="514" d="M39 193Q39 235 55 272T98 336T161 380T240 396Q270 396 297 388T346 364T384 330T410 288Q410 313 411 338T414 387H444V0H410V99Q393 55 348 24T240 -7Q197 -7 161 9T97 52T55 115T39 193ZM73
194Q73 159 86 129T121 76T175 40T241 27Q276 27 307 40T361 75T397 128T410 194Q410 229 397 260T361 313T307 349T241 362Q206 362 175 349T122 314T86 260T73 194ZM183 614L273 481H244L145 614H183Z" />
<glyph unicode="&#xe1;" glyph-name="aacute" horiz-adv-x="514" d="M39 193Q39 235 55 272T98 336T161 380T240 396Q270 396 297 388T346 364T384 330T410 288Q410 313 411 338T414 387H444V0H410V99Q393 55 348 24T240 -7Q197 -7 161 9T97 52T55 115T39 193ZM73
194Q73 159 86 129T121 76T175 40T241 27Q276 27 307 40T361 75T397 128T410 194Q410 229 397 260T361 313T307 349T241 362Q206 362 175 349T122 314T86 260T73 194ZM235 481Q258 514 280 547T326 614H364L265 481H235Z" />
<glyph unicode="&#xe2;" glyph-name="acircumflex" horiz-adv-x="514" d="M39 193Q39 235 55 272T98 336T161 380T240 396Q270 396 297 388T346 364T384 330T410 288Q410 313 411 338T414 387H444V0H410V99Q393 55 348 24T240 -7Q197 -7 161 9T97 52T55 115T39
193ZM73 194Q73 159 86 129T121 76T175 40T241 27Q276 27 307 40T361 75T397 128T410 194Q410 229 397 260T361 313T307 349T241 362Q206 362 175 349T122 314T86 260T73 194ZM269 662L389 480H360L269 612L178 480H148Q179 525 209 570T269 662Z" />
<glyph unicode="&#xe3;" glyph-name="atilde" horiz-adv-x="514" d="M39 193Q39 235 55 272T98 336T161 380T240 396Q270 396 297 388T346 364T384 330T410 288Q410 313 411 338T414 387H444V0H410V99Q393 55 348 24T240 -7Q197 -7 161 9T97 52T55 115T39 193ZM73
194Q73 159 86 129T121 76T175 40T241 27Q276 27 307 40T361 75T397 128T410 194Q410 229 397 260T361 313T307 349T241 362Q206 362 175 349T122 314T86 260T73 194ZM265 494Q249 511 237 517T211 523Q203 523 194 521T175 513T158 497T149 470L126 473Q127 492
135 506T155 529T182 542T211 547Q232 547 249 537T283 510Q299 493 311 487T337 481Q344 481 354 483T373 491T390 507T399 534L422 531Q421 512 413 499T393 476T366 463T337 458Q316 458 299 467T265 494Z" />
<glyph unicode="&#xe4;" glyph-name="adieresis" horiz-adv-x="514" d="M39 193Q39 235 55 272T98 336T161 380T240 396Q270 396 297 388T346 364T384 330T410 288Q410 313 411 338T414 387H444V0H410V99Q393 55 348 24T240 -7Q197 -7 161 9T97 52T55 115T39 193ZM73
194Q73 159 86 129T121 76T175 40T241 27Q276 27 307 40T361 75T397 128T410 194Q410 229 397 260T361 313T307 349T241 362Q206 362 175 349T122 314T86 260T73 194ZM326 508Q326 522 335 530T356 539Q368 539 377 531T386 508Q386 495 377 487T356 478Q344 478
335 486T326 508ZM154 508Q154 522 163 530T184 539Q196 539 205 531T214 508Q214 495 205 487T184 478Q172 478 163 486T154 508Z" />
<glyph unicode="&#xe5;" glyph-name="aring" horiz-adv-x="514" d="M39 193Q39 235 55 272T98 336T161 380T240 396Q270 396 297 388T346 364T384 330T410 288Q410 313 411 338T414 387H444V0H410V99Q393 55 348 24T240 -7Q197 -7 161 9T97 52T55 115T39 193ZM73
194Q73 159 86 129T121 76T175 40T241 27Q276 27 307 40T361 75T397 128T410 194Q410 229 397 260T361 313T307 349T241 362Q206 362 175 349T122 314T86 260T73 194ZM178 490Q178 519 198 539T248 560Q277 560 297 540T317 490Q317 461 297 441T248 421Q219 421
199 441T178 490ZM203 490Q203 472 216 459T248 445Q266 445 279 458T293 490Q293 508 280 521T248 535Q229 535 216 522T203 490Z" />
<glyph unicode="&#xe6;" glyph-name="ae" horiz-adv-x="640" d="M341 86Q339 80 337 75T333 64Q355 47 382 37T439 27Q473 27 503 39T555 72L581 47Q554 22 518 8T440 -7Q403 -7 371 4T313 37Q290 14 256 3T180 -8Q145 -8 119 1T74 27T47 63T37 107Q37 132 48
150T78 181T118 200T161 206H238Q240 241 253 273T290 330Q276 345 252 353T189 361Q143 361 116 351T67 327L51 356Q75 373 111 384T196 396Q240 396 269 385T316 354Q342 374 373 385T439 397Q503 397 548 360T616 264Q580 250 538 233T452 198T365 163T284 130Q293
107 308 89Q310 94 312 104L341 86ZM572 274Q554 314 520 338T439 362Q404 362 374 349T321 313T285 260T272 195Q272 184 273 174T277 154Q311 168 349 183T425 214T501 245T572 274ZM72 110Q72 86 82 71T108 45T145 31T187 27Q221 27 246 36T288 60Q267 83 254
112T238 176H187Q153 176 131 170T95 155T77 134T72 110Z" />
<glyph unicode="&#xe7;" glyph-name="ccedilla" horiz-adv-x="401" d="M346 63Q352 57 357 51T368 37Q342 17 310 5T241 -7H240Q240 -33 254 -43T281 -61Q304 -77 313 -96T322 -132Q322 -181 296 -207T231 -233Q202 -233 178 -217T142 -169Q149 -167 155 -164T167
-158Q173 -178 189 -190T229 -203Q258 -203 275 -184T293 -136Q293 -111 281 -97T254 -73T227 -51T214 -18V-5Q176 -1 144 16T89 60T53 121T39 194Q39 236 54 273T97 337T162 380T241 396Q278 396 310 384T369 352Q364 345 358 339T346 325Q325 342 298 352T241
362Q205 362 175 349T122 314T86 260T73 194Q73 159 86 129T121 76T174 40T241 27Q271 27 298 36T346 63Z" />
<glyph unicode="&#xe8;" glyph-name="egrave" horiz-adv-x="440" d="M382 47Q355 22 319 8T241 -7Q199 -7 162 9T98 52T55 115T39 194Q39 236 55 273T98 337T161 381T240 397Q304 397 349 360T417 264Q381 250 339 233T253 198T166 163T85 130Q104 84 145 56T240
27Q274 27 304 39T356 72L382 47ZM373 274Q355 314 321 338T240 362Q205 362 175 349T122 313T86 260T73 195Q73 184 74 174T78 154Q112 168 150 183T226 214T302 245T373 274ZM153 614L243 481H214L115 614H153Z" />
<glyph unicode="&#xe9;" glyph-name="eacute" horiz-adv-x="440" d="M382 47Q355 22 319 8T241 -7Q199 -7 162 9T98 52T55 115T39 194Q39 236 55 273T98 337T161 381T240 397Q304 397 349 360T417 264Q381 250 339 233T253 198T166 163T85 130Q104 84 145 56T240
27Q274 27 304 39T356 72L382 47ZM373 274Q355 314 321 338T240 362Q205 362 175 349T122 313T86 260T73 195Q73 184 74 174T78 154Q112 168 150 183T226 214T302 245T373 274ZM224 481Q247 514 269 547T315 614H353L254 481H224Z" />
<glyph unicode="&#xea;" glyph-name="ecircumflex" horiz-adv-x="440" d="M382 47Q355 22 319 8T241 -7Q199 -7 162 9T98 52T55 115T39 194Q39 236 55 273T98 337T161 381T240 397Q304 397 349 360T417 264Q381 250 339 233T253 198T166 163T85 130Q104 84 145
56T240 27Q274 27 304 39T356 72L382 47ZM373 274Q355 314 321 338T240 362Q205 362 175 349T122 313T86 260T73 195Q73 184 74 174T78 154Q112 168 150 183T226 214T302 245T373 274ZM234 663L354 481H325L234 613L143 481H113Q144 526 174 571T234 663Z" />
<glyph unicode="&#xeb;" glyph-name="edieresis" horiz-adv-x="440" d="M382 47Q355 22 319 8T241 -7Q199 -7 162 9T98 52T55 115T39 194Q39 236 55 273T98 337T161 381T240 397Q304 397 349 360T417 264Q381 250 339 233T253 198T166 163T85 130Q104 84 145 56T240
27Q274 27 304 39T356 72L382 47ZM373 274Q355 314 321 338T240 362Q205 362 175 349T122 313T86 260T73 195Q73 184 74 174T78 154Q112 168 150 183T226 214T302 245T373 274ZM290 508Q290 522 299 530T320 539Q332 539 341 531T350 508Q350 495 341 487T320 478Q308
478 299 486T290 508ZM118 508Q118 522 127 530T148 539Q160 539 169 531T178 508Q178 495 169 487T148 478Q136 478 127 486T118 508Z" />
<glyph unicode="&#xec;" glyph-name="igrave" horiz-adv-x="174" d="M104 0H70V387H104V0ZM22 614L112 481H83L-16 614H22Z" />
<glyph unicode="&#xed;" glyph-name="iacute" horiz-adv-x="174" d="M104 0H70V387H104V0ZM70 481Q93 514 115 547T161 614H199L100 481H70Z" />
<glyph unicode="&#xee;" glyph-name="icircumflex" horiz-adv-x="174" d="M104 0H70V387H104V0ZM88 663L208 481H179L88 613L-3 481H-33Q-2 526 28 571T88 663Z" />
<glyph unicode="&#xef;" glyph-name="idieresis" horiz-adv-x="174" d="M104 0H70V387H104V0ZM145 508Q145 522 154 530T175 539Q187 539 196 531T205 508Q205 495 196 487T175 478Q163 478 154 486T145 508ZM-27 508Q-27 522 -18 530T3 539Q15 539 24 531T33
508Q33 495 24 487T3 478Q-9 478 -18 486T-27 508Z" />
<glyph unicode="&#xf0;" glyph-name="eth" horiz-adv-x="491" d="M40 194Q40 236 56 273T99 337T164 381T243 397Q285 397 321 382T384 340Q368 394 332 466T228 617L157 541L137 560L211 639Q164 690 115 731L134 751Q159 731 183 709T231 660Q248 679 264 697T297
733Q302 729 307 725T317 716L248 640Q288 592 324 537T387 425T431 309T447 196Q447 185 445 177Q442 138 425 105T381 47T318 8T242 -7Q200 -7 163 8T99 51T56 114T40 194ZM75 194Q75 159 88 129T123 76T176 40T242 27Q277 27 307 40T361 75T397 128T410 194Q410
229 397 259T361 313T308 349T242 362Q207 362 177 349T124 313T88 260T75 194Z" />
<glyph unicode="&#xf1;" glyph-name="ntilde" horiz-adv-x="457" d="M70 387H99Q99 383 99 368T100 336T100 305T101 287Q122 335 166 365T268 395Q324 395 356 363T391 280V0H356V274Q354 309 331 334T264 361Q231 361 202 350T152 320T117 274T104 216V0H70V387ZM231
492Q215 509 203 515T177 521Q169 521 160 519T141 511T124 495T115 468L92 471Q93 490 101 504T121 527T148 540T177 545Q198 545 215 535T249 508Q265 491 277 485T303 479Q310 479 320 481T339 489T356 505T365 532L388 529Q387 510 379 497T359 474T332 461T303
456Q282 456 265 465T231 492Z" />
<glyph unicode="&#xf2;" glyph-name="ograve" horiz-adv-x="485" d="M40 194Q40 236 56 273T99 337T164 381T243 397Q285 397 322 381T386 338T430 273T446 194Q446 152 430 116T387 52T322 9T242 -7Q200 -7 163 8T99 51T56 114T40 194ZM75 194Q75 159 88 129T123
76T176 40T242 27Q277 27 307 40T361 75T397 128T410 194Q410 229 397 259T361 313T308 349T242 362Q207 362 177 349T124 313T88 260T75 194ZM157 614L247 481H218L119 614H157Z" />
<glyph unicode="&#xf3;" glyph-name="oacute" horiz-adv-x="485" d="M40 194Q40 236 56 273T99 337T164 381T243 397Q285 397 322 381T386 338T430 273T446 194Q446 152 430 116T387 52T322 9T242 -7Q200 -7 163 8T99 51T56 114T40 194ZM75 194Q75 159 88 129T123
76T176 40T242 27Q277 27 307 40T361 75T397 128T410 194Q410 229 397 259T361 313T308 349T242 362Q207 362 177 349T124 313T88 260T75 194ZM242 481Q265 514 287 547T333 614H371L272 481H242Z" />
<glyph unicode="&#xf4;" glyph-name="ocircumflex" horiz-adv-x="485" d="M40 194Q40 236 56 273T99 337T164 381T243 397Q285 397 322 381T386 338T430 273T446 194Q446 152 430 116T387 52T322 9T242 -7Q200 -7 163 8T99 51T56 114T40 194ZM75 194Q75 159 88
129T123 76T176 40T242 27Q277 27 307 40T361 75T397 128T410 194Q410 229 397 259T361 313T308 349T242 362Q207 362 177 349T124 313T88 260T75 194ZM242 663L362 481H333L242 613L151 481H121Q152 526 182 571T242 663Z" />
<glyph unicode="&#xf5;" glyph-name="otilde" horiz-adv-x="485" d="M40 194Q40 236 56 273T99 337T164 381T243 397Q285 397 322 381T386 338T430 273T446 194Q446 152 430 116T387 52T322 9T242 -7Q200 -7 163 8T99 51T56 114T40 194ZM75 194Q75 159 88 129T123
76T176 40T242 27Q277 27 307 40T361 75T397 128T410 194Q410 229 397 259T361 313T308 349T242 362Q207 362 177 349T124 313T88 260T75 194ZM238 494Q222 511 210 517T184 523Q176 523 167 521T148 513T131 497T122 470L99 473Q100 492 108 506T128 529T155 542T184
547Q205 547 222 537T256 510Q272 493 284 487T310 481Q317 481 327 483T346 491T363 507T372 534L395 531Q394 512 386 499T366 476T339 463T310 458Q289 458 272 467T238 494Z" />
<glyph unicode="&#xf6;" glyph-name="odieresis" horiz-adv-x="485" d="M40 194Q40 236 56 273T99 337T164 381T243 397Q285 397 322 381T386 338T430 273T446 194Q446 152 430 116T387 52T322 9T242 -7Q200 -7 163 8T99 51T56 114T40 194ZM75 194Q75 159 88 129T123
76T176 40T242 27Q277 27 307 40T361 75T397 128T410 194Q410 229 397 259T361 313T308 349T242 362Q207 362 177 349T124 313T88 260T75 194ZM305 508Q305 522 314 530T335 539Q347 539 356 531T365 508Q365 495 356 487T335 478Q323 478 314 486T305 508ZM133
508Q133 522 142 530T163 539Q175 539 184 531T193 508Q193 495 184 487T163 478Q151 478 142 486T133 508Z" />
<glyph unicode="&#xf7;" glyph-name="divide" horiz-adv-x="512" d="M437 210H75V245H437V210ZM229 359Q229 372 238 380T259 389Q270 389 279 381T289 359Q289 345 280 337T259 328Q247 328 238 336T229 359ZM229 96Q229 109 238 117T259 126Q270 126 279 118T289
96Q289 82 280 74T259 65Q247 65 238 73T229 96Z" />
<glyph unicode="&#xf8;" glyph-name="oslash" horiz-adv-x="484" d="M37 194Q37 236 53 273T96 337T161 381T240 397Q305 397 355 361L384 395L403 378L375 345Q407 317 425 278T443 194Q443 152 427 116T384 52T319 9T239 -7Q203 -7 171 4T112 36L75 -7L58 11L94
53Q67 80 52 116T37 194ZM135 63Q179 27 239 27Q274 27 304 40T358 75T394 128T407 194Q407 231 393 263T352 318Q329 290 301 258T245 191T188 124T135 63ZM72 194Q72 161 83 132T116 80Q140 108 168 141T224 207T281 273T332 334Q292 362 239 362Q204 362 174
349T121 313T85 260T72 194Z" />
<glyph unicode="&#xf9;" glyph-name="ugrave" horiz-adv-x="457" d="M387 -3H359L356 101Q335 52 291 22T189 -8Q133 -8 101 24T66 108V387H100V114Q102 79 125 54T193 26Q226 26 254 37T305 67T339 112T352 171V387H387V-3ZM200 614L290 481H261L162 614H200Z" />
<glyph unicode="&#xfa;" glyph-name="uacute" horiz-adv-x="457" d="M387 -3H359L356 101Q335 52 291 22T189 -8Q133 -8 101 24T66 108V387H100V114Q102 79 125 54T193 26Q226 26 254 37T305 67T339 112T352 171V387H387V-3ZM229 481Q252 514 274 547T320 614H358L259
481H229Z" />
<glyph unicode="&#xfb;" glyph-name="ucircumflex" horiz-adv-x="457" d="M387 -3H359L356 101Q335 52 291 22T189 -8Q133 -8 101 24T66 108V387H100V114Q102 79 125 54T193 26Q226 26 254 37T305 67T339 112T352 171V387H387V-3ZM265 663L385 481H356L265 613L174
481H144Q175 526 205 571T265 663Z" />
<glyph unicode="&#xfc;" glyph-name="udieresis" horiz-adv-x="457" d="M387 -3H359L356 101Q335 52 291 22T189 -8Q133 -8 101 24T66 108V387H100V114Q102 79 125 54T193 26Q226 26 254 37T305 67T339 112T352 171V387H387V-3ZM317 508Q317 522 326 530T347 539Q359
539 368 531T377 508Q377 495 368 487T347 478Q335 478 326 486T317 508ZM145 508Q145 522 154 530T175 539Q187 539 196 531T205 508Q205 495 196 487T175 478Q163 478 154 486T145 508Z" />
<glyph unicode="&#xfd;" glyph-name="yacute" horiz-adv-x="419" d="M145 -186H107Q119 -161 128 -140T145 -96T164 -50T188 8Q142 101 102 197T15 387H52Q79 334 100 288T139 198T174 115T209 36Q227 75 244 115T279 197T317 287T365 387H403L145 -186ZM208 481Q231
514 253 547T299 614H337L238 481H208Z" />
<glyph unicode="&#xfe;" glyph-name="thorn" horiz-adv-x="516" d="M476 194Q476 152 461 115T418 51T354 9T274 -7Q215 -7 169 23T104 99Q104 86 104 74T105 48V-186H70V758H105V288Q115 310 131 330T170 364T219 387T276 396Q318 396 354 381T418 338T460 274T476
194ZM439 194Q439 229 427 260T392 313T339 349T273 362Q238 362 207 349T154 314T118 260T105 194Q105 159 118 129T153 76T207 40T273 27Q309 27 339 40T391 75T426 128T439 194Z" />
<glyph unicode="&#xff;" glyph-name="ydieresis" horiz-adv-x="420" d="M145 -186H107Q119 -161 128 -140T145 -96T164 -50T188 8Q142 101 102 197T15 387H52Q79 334 100 288T139 198T174 115T209 36Q227 75 244 115T279 197T317 287T365 387H403L145 -186ZM282
508Q282 522 291 530T312 539Q324 539 333 531T342 508Q342 495 333 487T312 478Q300 478 291 486T282 508ZM110 508Q110 522 119 530T140 539Q152 539 161 531T170 508Q170 495 161 487T140 478Q128 478 119 486T110 508Z" />
<glyph unicode="&#x2013;" glyph-name="endash" horiz-adv-x="434" d="M65 176V212H368V176H65Z" />
<glyph unicode="&#x2014;" glyph-name="emdash" horiz-adv-x="635" d="M65 176V212H569V176H65Z" />
<glyph unicode="&#x2018;" glyph-name="quoteleft" horiz-adv-x="182" d="M124 592Q119 587 116 582T107 572Q78 599 66 636T61 714L91 707Q84 672 93 642T124 592Z" />
<glyph unicode="&#x2019;" glyph-name="quoteright" horiz-adv-x="182" d="M75 572L58 592Q79 612 88 642T91 707L120 714Q128 673 116 636T75 572Z" />
<glyph unicode="&#x201a;" glyph-name="quotesinglbase" horiz-adv-x="200" d="M72 -49L55 -29Q76 -9 85 20T88 85L118 92Q126 52 114 15T72 -49Z" />
<glyph unicode="&#x201c;" glyph-name="quotedblleft" horiz-adv-x="286" d="M228 592Q223 587 220 582T211 572Q182 599 170 636T165 714L195 707Q188 672 197 642T228 592ZM124 592Q114 582 107 572Q78 599 66 636T61 714L91 707Q84 672 93 642T124 592Z" />
<glyph unicode="&#x201d;" glyph-name="quotedblright" horiz-adv-x="286" d="M179 572Q174 577 171 582T162 592Q183 612 192 642T195 707L225 714Q233 673 221 636T179 572ZM75 572L58 592Q79 612 88 642T91 707L120 714Q128 673 116 636T75 572Z" />
<glyph unicode="&#x201e;" glyph-name="quotedblbase" horiz-adv-x="304" d="M72 -49L55 -29Q76 -9 85 20T88 85L118 92Q126 52 114 15T72 -49ZM176 -49Q172 -44 168 -39T159 -29Q180 -9 189 20T192 85L222 92Q230 52 218 15T176 -49Z" />
<glyph unicode="&#x2022;" glyph-name="bullet" horiz-adv-x="361" d="M95 301Q95 337 120 362T180 387Q216 387 241 362T266 301Q266 266 241 241T180 216Q145 216 120 241T95 301Z" />
<glyph unicode="&#x2039;" glyph-name="guilsinglleft" horiz-adv-x="284" d="M220 69L48 240Q65 256 87 278T134 324T180 370T220 410V368Q191 339 159 304T98 240Q127 211 159 176T220 111V69Z" />
<glyph unicode="&#x203a;" glyph-name="guilsinglright" horiz-adv-x="284" d="M64 111Q93 140 125 175T186 240Q157 269 125 304T64 368V410Q81 393 103 371T150 325T196 279T236 240L64 69V111Z" />
</font>
</defs>
</svg>
