<?xml version="1.0" standalone="no"?>
<!DOCTYPE svg PUBLIC "-//W3C//DTD SVG 1.1//EN" "http://www.w3.org/Graphics/SVG/1.1/DTD/svg11.dtd">
<svg xmlns="http://www.w3.org/2000/svg">
<defs >
<font id="JosefinSans" horiz-adv-x="514" ><font-face
    font-family="Josefin Sans"
    units-per-em="1000"
    panose-1="0 0 0 0 0 0 0 0 0 0"
    ascent="750"
    descent="-250"
    alphabetic="0" />
<glyph unicode=" " glyph-name="space" horiz-adv-x="228" />
<glyph unicode="!" glyph-name="exclam" horiz-adv-x="273" d="M85 762H188V168H85V762ZM137 -10Q113 -10 94 8T75 53Q75 80 94 97T137 114Q159 114 178 97T197 53Q197 26 178 8T137 -10Z" />
<glyph unicode="&quot;" glyph-name="quotedbl" horiz-adv-x="359" d="M198 479V731H299L295 479H198ZM63 479V731H164L160 479H63Z" />
<glyph unicode="#" glyph-name="numbersign" horiz-adv-x="585" d="M292 0Q297 46 302 90T313 181H230Q225 135 220 91T209 0H105Q110 46 115 90T126 181H39Q42 207 45 231T51 281H138L149 368H62L73 467H159Q166 515 171 560T183 653H287L263 467H347Q352 515
358 560T370 653H474L450 467H545Q542 442 540 418T535 368H439L429 281H524Q521 256 518 232T512 181H417L395 0H292ZM252 368Q250 346 248 325T242 281H325L335 368H252Z" />
<glyph unicode="$" glyph-name="dollar" horiz-adv-x="592" d="M527 688L483 588Q445 602 407 610T336 621V429Q373 415 411 398T481 356T531 296T551 209Q551 122 494 67T336 -3V-68H266V-8H264Q221 -8 185 -2T121 13T71 33T34 53L87 160Q129 137 177 125T262
112H266V336Q230 349 196 365T133 403T88 455T71 528Q71 562 83 595T119 655T180 702T266 729V796H336V732Q372 730 404 724T463 710T506 696T527 688ZM430 210Q430 245 403 268T336 308V122Q354 126 370 133T400 151T422 176T430 210ZM192 536Q192 508 212 489T266
456V614Q231 604 212 584T192 536Z" />
<glyph unicode="%" glyph-name="percent" horiz-adv-x="733" d="M159 0L462 508H575L272 0H159ZM562 -22Q534 -22 510 -12T467 17T438 59T427 112Q427 140 437 164T466 206T509 234T562 245Q589 245 613 235T656 206T686 164T697 112Q697 84 686 60T657 17T614
-11T562 -22ZM173 262Q146 262 122 272T79 301T49 343T38 395Q38 423 49 447T78 489T121 517T173 528Q200 528 224 518T267 489T297 447T308 395Q308 367 297 343T268 301T225 273T173 262ZM142 395Q142 381 150 371T173 361Q188 361 196 371T204 395Q204 410 196
419T173 428Q158 428 150 419T142 395ZM531 113Q531 98 539 89T562 79Q578 79 585 88T593 113Q593 127 586 136T562 145Q547 145 539 136T531 113Z" />
<glyph unicode="&amp;" glyph-name="ampersand" horiz-adv-x="661" d="M647 0H533Q532 0 516 20T472 72Q440 35 389 12T273 -11Q221 -11 177 5T102 51T52 120T34 208Q34 248 46 283T81 347T134 395T201 426Q189 444 179 461T162 492Q145 525 135 552T124 611Q124
645 138 672T176 719T232 748T300 760Q348 762 388 749T451 720Q451 720 443 708T424 683T406 657T398 645Q389 651 376 657T342 666Q322 669 302 667T265 657T238 635T227 598Q227 573 237 553T251 526L458 250L531 435H632L524 163L647 0ZM259 342Q233 341 210
331T169 303T141 262T130 214Q130 179 143 154T177 114T225 91T279 83Q298 83 317 87T355 100T388 119T413 144Q376 190 336 241T259 342Z" />
<glyph unicode="&apos;" glyph-name="quotesingle" horiz-adv-x="227" d="M63 479V731H166L162 479H63Z" />
<glyph unicode="(" glyph-name="parenleft" horiz-adv-x="304" d="M35 295Q35 371 49 440T86 568T140 676T202 757Q225 751 248 746T295 734Q266 701 238 655T187 554T152 433T138 295Q138 223 151 158T187 37T237 -64T295 -143Q272 -150 249 -155T202 -167Q170
-133 140 -85T87 22T49 150T35 295Z" />
<glyph unicode=")" glyph-name="parenright" horiz-adv-x="305" d="M270 291Q270 215 256 146T219 18T165 -89T103 -171L10 -150Q40 -117 68 -71T118 30T153 151T167 289Q167 361 154 426T118 547T68 648T10 728Q33 734 56 740T103 754Q135 720 165 672T218 565T256
437T270 291Z" />
<glyph unicode="*" glyph-name="asterisk" horiz-adv-x="374" d="M254 575L327 533L292 472L220 515Q220 495 220 475T219 434H152V515L81 475L46 536Q64 546 81 556T118 576L47 619Q55 633 63 647T79 676L152 634V720H223Q223 698 223 677T222 634Q240 645 258
655T296 675Q304 661 312 647T329 618Q310 607 292 597T254 575Z" />
<glyph unicode="+" glyph-name="plus" horiz-adv-x="447" d="M171 52V184H41V284H171V417H276V284H406V184H276V52H171Z" />
<glyph unicode="," glyph-name="comma" horiz-adv-x="249" d="M185 88L97 -122H5Q25 -69 44 -18T83 88H185Z" />
<glyph unicode="-" glyph-name="hyphen" horiz-adv-x="298" d="M55 171V272H242V171H55Z" />
<glyph unicode="." glyph-name="period" horiz-adv-x="226" d="M52 62Q52 88 71 106T114 124Q135 124 154 106T174 62Q174 33 155 17T114 0Q91 0 72 16T52 62Z" />
<glyph unicode="/" glyph-name="slash" horiz-adv-x="445" d="M29 -19Q101 174 170 364T312 748H415L133 -19H29Z" />
<glyph unicode="0" glyph-name="zero" horiz-adv-x="636" d="M46 333Q46 417 68 480T127 585T214 647T319 668Q379 668 429 645T515 577T571 470T590 328Q589 248 568 185T511 79T424 14T316 -9Q260 -9 211 13T125 79T67 186T46 333ZM149 330Q149 282 161 239T196
164T250 112T316 92Q351 92 382 111T436 162T472 238T486 330Q486 362 479 403T453 481T402 543T320 569Q268 569 235 542T183 478T157 399T149 330Z" />
<glyph unicode="1" glyph-name="one" horiz-adv-x="310" d="M51 561V660H212V0H108V561H51Z" />
<glyph unicode="2" glyph-name="two" horiz-adv-x="551" d="M297 100H513V0H51Q113 63 171 121T274 235T346 342T374 442Q374 474 363 498T334 537T297 561T260 569Q225 569 203 557T167 527T148 491T143 459Q143 426 153 401T183 356L122 293Q102 303 87 323T62
368T46 416T40 459Q40 499 54 537T97 604T166 650T260 668Q309 668 349 651T418 604T462 535T478 454Q478 406 464 361T425 273T367 186T297 100Z" />
<glyph unicode="3" glyph-name="three" horiz-adv-x="468" d="M124 322Q154 382 193 440T262 559H71V660H423Q390 600 354 541T285 422Q345 391 381 338T417 216Q417 170 399 129T350 58T278 10T190 -8Q142 -8 99 12T25 65L100 135Q135 92 191 92Q216 92 238 102T277
128T304 167T314 216Q314 241 304 263T278 302T239 328T191 338Q153 338 124 322Z" />
<glyph unicode="4" glyph-name="four" horiz-adv-x="527" d="M291 390Q283 380 270 364T244 329T217 294T197 267H291V390ZM-2 168Q44 228 94 291T196 418T297 545T394 668V267H493V168H394V0H291V168H-2Z" />
<glyph unicode="5" glyph-name="five" horiz-adv-x="457" d="M79 299V660H371V561H168V434Q173 436 177 437T191 438Q242 438 284 421T355 373T400 304T416 220Q416 172 398 130T349 58T277 10T190 -8Q145 -8 106 8T35 55Q54 73 73 90T110 124Q126 110 146 101T192
92Q217 92 239 102T277 128T304 167T314 216Q314 241 304 263T278 303T239 329T191 339Q165 339 135 333T79 299Z" />
<glyph unicode="6" glyph-name="six" horiz-adv-x="533" d="M41 216Q41 270 58 318T102 407T165 484T237 550T308 604T369 648Q386 629 401 609T433 570Q410 555 381 535T322 495T269 457T233 425Q246 438 265 438Q311 438 352 421T425 374T474 304T492 217Q492
170 474 130T425 58T353 10T266 -8Q229 -8 190 5T117 45T63 114T41 216ZM148 216Q148 191 157 169T182 129T219 102T266 92Q291 92 313 102T352 129T379 168T389 216Q389 241 379 263T352 303T313 329T266 339Q241 339 220 330T182 303T157 264T148 216ZM230 422L233
425L230 422Z" />
<glyph unicode="7" glyph-name="seven" horiz-adv-x="460" d="M31 559V660H454Q386 486 324 326T198 0H80Q128 128 183 272T294 559H31Z" />
<glyph unicode="8" glyph-name="eight" horiz-adv-x="533" d="M202 501Q202 475 222 457T269 438Q295 438 315 456T335 501Q335 528 315 548T269 569Q256 569 244 564T223 549T208 527T202 501ZM147 216Q147 190 156 168T182 129T219 102T266 92Q291 92 313 102T352
128T379 167T389 216Q389 241 380 263T355 301T318 328T271 339Q246 339 224 330T184 305T157 265T147 216ZM41 211Q41 248 50 278T74 331T108 371T148 398Q122 419 113 445T103 495Q103 533 116 565T151 620T203 655T267 668Q301 668 331 655T384 620T420 566T433
497Q433 473 423 447T385 398Q406 387 425 370T459 330T483 277T492 211Q492 168 476 129T431 59T360 10T266 -8Q214 -8 173 10T102 58T57 128T41 211Z" />
<glyph unicode="9" glyph-name="nine" horiz-adv-x="533" d="M385 424Q385 449 376 471T351 511T314 539T267 549Q242 549 220 539T181 512T154 472T144 424Q144 398 154 376T181 338T220 312T267 302Q292 302 313 311T351 337T376 376T385 424ZM492 424Q492 370
475 323T431 234T368 156T297 90T225 36T164 -8Q147 12 132 31T100 71Q124 87 154 107T215 148T269 187T304 218Q290 202 268 202Q222 202 181 219T108 266T59 336T41 423Q41 469 59 510T108 582T180 630T267 648Q304 648 343 635T416 595T470 526T492 424Z" />
<glyph unicode=":" glyph-name="colon" horiz-adv-x="232" d="M55 340Q55 366 74 384T117 402Q138 402 157 384T177 340Q177 311 158 295T117 278Q94 278 75 294T55 340ZM55 62Q55 88 74 106T117 124Q138 124 157 106T177 62Q177 33 158 17T117 0Q94 0 75 16T55 62Z" />
<glyph unicode=";" glyph-name="semicolon" horiz-adv-x="259" d="M182 88L94 -122H2Q22 -69 41 -18T80 88H182ZM79 316Q79 342 98 360T140 378Q162 378 181 360T200 316Q200 287 181 271T140 254Q117 254 98 270T79 316Z" />
<glyph unicode="&lt;" glyph-name="less" horiz-adv-x="530" d="M469 127V-14Q357 50 247 113T25 242Q137 306 247 370T469 497V357L270 242L469 127Z" />
<glyph unicode="=" glyph-name="equal" horiz-adv-x="630" d="M572 204V104H58V204H572ZM572 401V301H58V401H572Z" />
<glyph unicode="&gt;" glyph-name="greater" horiz-adv-x="530" d="M61 -14V127L261 242L61 357V497Q173 434 283 370T505 242Q393 177 283 114T61 -14Z" />
<glyph unicode="?" glyph-name="question" horiz-adv-x="475" d="M122 550Q100 558 78 566T33 583Q39 603 51 631T86 684T146 726T240 744Q282 744 318 728T381 685T423 622T439 546Q439 489 413 446T340 368Q327 359 311 348T281 323T256 290T246 246V166H142V265Q142
298 152 319T178 355T216 384T260 415Q334 471 334 546Q334 588 309 616T240 644Q212 644 193 638T161 621T138 592T122 550ZM193 -6Q170 -6 151 10T131 55Q131 81 150 99T193 117Q215 117 234 99T253 55Q253 27 234 11T193 -6Z" />
<glyph unicode="@" glyph-name="at" horiz-adv-x="952" d="M233 208Q233 254 251 295T299 368T370 417T456 436Q486 436 510 429T551 411T579 391T592 374L596 425H689V90H711Q723 90 739 97T771 124T798 174T809 253Q809 308 790 361T731 456T631 523T490 549Q393
549 325 516T214 433T151 321T131 204Q131 135 157 74T230 -34T339 -106T473 -133Q531 -133 584 -116T683 -66L738 -132Q712 -155 679 -172T611 -200T539 -216T468 -222Q380 -222 302 -188T166 -96T73 40T38 207Q38 286 67 363T153 501T295 601T493 639Q595 639
672 606T800 519T878 395T904 254Q904 196 890 149T849 69T788 18T711 0H592V28Q592 33 592 37T593 44Q589 39 579 30T552 11T512 -4T457 -11Q408 -11 367 7T296 55T250 124T233 208ZM330 214Q330 186 339 162T366 121T408 93T461 83Q490 83 514 93T555 121T582
163T592 214Q592 241 583 264T556 305T514 332T461 342Q432 342 408 333T367 306T340 265T330 214Z" />
<glyph unicode="A" glyph-name="A" horiz-adv-x="653" d="M532 0Q529 7 522 25T503 69T479 126T452 192H201L121 0H0Q4 9 19 44T56 132T106 249T163 381T219 512T269 629T307 717T326 762Q330 753 345 718T383 630T433 513T490 381T546 250T596 133T634 45T653
0H532ZM243 295H409L337 469Q336 470 332 482T326 505Q324 495 320 483T316 469L243 295Z" />
<glyph unicode="B" glyph-name="B" horiz-adv-x="595" d="M206 618V420H298Q349 420 373 450T398 522Q398 571 368 594T287 618H206ZM206 316V111H302Q329 111 353 117T395 136T423 168T433 214Q433 243 421 262T389 294T344 311T291 316H206ZM84 0V729H283Q337
729 381 719T456 686T503 627T520 539Q520 511 515 485T497 436T464 396T414 370Q439 365 464 353T510 321T542 270T555 198Q555 145 535 108T481 46T403 11T312 0H84Z" />
<glyph unicode="C" glyph-name="C" horiz-adv-x="640" d="M633 54Q621 46 600 35T549 15T482 -1T403 -8Q317 -8 249 21T134 101T62 218T37 359Q37 441 67 510T148 630T268 709T415 737Q445 737 475 733T533 721T580 705T610 686Q601 672 596 663T586 645T574 623T555
590Q543 598 526 604T491 613T453 619T419 621Q363 621 316 600T234 545T180 464T160 369Q160 321 178 276T230 195T310 139T412 117Q444 117 474 123T527 138T564 154T580 165L633 54Z" />
<glyph unicode="D" glyph-name="D" horiz-adv-x="713" d="M84 729H273Q383 729 459 696T584 609T653 489T675 354Q675 272 646 207T566 95T450 25T309 0H84V729ZM290 116Q347 116 395 132T478 179T532 256T552 362Q552 430 529 477T469 554T389 597T305 611H207V116H290Z" />
<glyph unicode="E" glyph-name="E" horiz-adv-x="619" d="M84 0V729H568V618H206V422H528V308H206V114H582V0H84Z" />
<glyph unicode="F" glyph-name="F" horiz-adv-x="559" d="M84 0V729H527V616H206V412H485V298H206V0H84Z" />
<glyph unicode="G" glyph-name="G" horiz-adv-x="688" d="M635 354V44Q593 19 534 6T412 -8Q326 -8 257 19T138 93T63 205T37 347Q37 434 68 505T151 628T273 708T420 737Q446 737 474 734T531 723T585 707T632 684L572 584Q558 593 539 599T498 611T457 618T418
621Q367 621 321 601T238 545T181 462T159 358Q159 308 178 263T231 184T312 129T415 108Q435 108 465 111T522 124V248H386V354H635Z" />
<glyph unicode="H" glyph-name="H" horiz-adv-x="763" d="M84 0V729H207V425H555V729H679Q679 717 679 662T679 530T679 365T678 200T678 67T678 0H555V308H207V0H84Z" />
<glyph unicode="I" glyph-name="I" horiz-adv-x="291" d="M84 729H207V0H84V729Z" />
<glyph unicode="J" glyph-name="J" horiz-adv-x="342" d="M-20 -151V-35Q14 -33 43 -22T93 10T125 65T137 145V729H261V142Q261 73 240 20T181 -71T92 -129T-20 -151Z" />
<glyph unicode="K" glyph-name="K" horiz-adv-x="655" d="M511 0Q476 43 446 83T386 162T326 242T261 327Q250 315 240 306T219 286V0H84V729H219V467Q219 459 218 450T216 432Q221 439 226 444T237 458Q305 523 367 593T498 729H653Q578 650 504 569T356 410Q398
356 435 305T510 205T584 105T663 0H511Z" />
<glyph unicode="L" glyph-name="L" horiz-adv-x="575" d="M84 0V729H206V116H560V0H84Z" />
<glyph unicode="M" glyph-name="M" horiz-adv-x="905" d="M84 761Q89 754 106 730T148 670T205 591T269 504T333 417T389 339T431 281T453 251Q455 254 471 276T511 333T567 410T631 499T695 588T753 668T798 729T821 761V0H690V372Q690 380 692 389T694 400L453
53Q448 59 429 86T382 150T325 229T269 308T224 370T203 400Q203 398 205 389T207 372V0H84V761Z" />
<glyph unicode="N" glyph-name="N" horiz-adv-x="812" d="M728 729V-34Q721 -25 697 -1T638 56T561 130T474 212T388 294T312 367T254 424T223 457Q222 459 215 467T203 483L206 451V0H84V762Q91 753 115 730T174 673T251 601T338 522T424 442T501 370T559 314T590
282L609 254L606 288V729H728Z" />
<glyph unicode="O" glyph-name="O" horiz-adv-x="817" d="M36 363Q36 439 65 507T145 626T263 707T408 737Q484 737 552 707T671 626T751 507T781 363Q781 286 752 219T671 101T552 21T408 -8Q331 -8 264 21T146 100T66 218T36 363ZM159 363Q159 310 178 264T232
183T312 128T411 108Q462 108 507 128T586 182T639 263T659 363Q659 416 639 462T585 544T506 599T408 619Q356 619 311 599T232 544T179 463T159 363Z" />
<glyph unicode="P" glyph-name="P" horiz-adv-x="583" d="M206 366H304Q342 366 367 379T407 411T428 452T434 491Q434 507 429 528T409 569T369 601T305 614H206V366ZM84 0V729H290Q350 729 399 713T483 667T537 593T556 494Q556 450 543 407T501 329T424 273T308
251H206V0H84Z" />
<glyph unicode="Q" glyph-name="Q" horiz-adv-x="822" d="M36 363Q36 439 65 507T144 626T262 707T407 737Q483 737 551 707T670 626T750 507T780 363Q780 292 759 229T697 107L804 116V0H485Q465 -4 446 -6T407 -8Q330 -8 263 21T145 100T65 218T36 363ZM158
363Q158 310 178 264T232 183T312 128T410 108Q462 108 507 128T585 182T638 263T658 363Q658 416 639 462T585 544T506 599T408 619Q356 619 311 599T231 544T178 463T158 363Z" />
<glyph unicode="R" glyph-name="R" horiz-adv-x="636" d="M84 0V729H290Q350 729 399 713T483 667T537 593T556 494Q556 464 550 434T531 376T497 325T447 284Q469 249 490 216T532 148T577 78T627 0H480Q435 70 395 132T318 251H308H206V0H84ZM206 366H304Q342
366 367 379T407 410T428 450T434 490Q434 507 429 528T409 569T369 601T305 614H206V366Z" />
<glyph unicode="S" glyph-name="S" horiz-adv-x="571" d="M514 688L470 588Q428 603 387 612T311 621Q250 621 215 597T179 536Q179 504 205 484T272 448T358 416T445 373T511 307T538 205Q538 157 521 118T468 51T380 8T254 -8Q210 -8 174 -2T110 13T59 32T21
53L74 160Q116 137 164 125T249 112Q267 112 295 116T351 131T397 161T417 210Q417 245 391 267T324 307T238 342T151 382T85 440T58 528Q58 566 73 602T118 668T194 715T302 733Q341 733 377 727T443 712T491 697T514 688Z" />
<glyph unicode="T" glyph-name="T" horiz-adv-x="563" d="M521 729V612H341V0H218V612H42V729H521Z" />
<glyph unicode="U" glyph-name="U" horiz-adv-x="720" d="M359 -8Q300 -8 249 11T159 66T99 150T77 260V729H199V263Q199 231 211 203T245 154T296 121T359 108Q393 108 422 120T474 154T508 203T521 263V729H643V260Q643 200 621 151T561 66T470 12T359 -8Z" />
<glyph unicode="V" glyph-name="V" horiz-adv-x="653" d="M121 729L316 260Q316 259 320 247T326 223Q328 234 332 246T337 260L532 729H653Q649 720 634 684T597 596T547 479T490 348T434 216T384 99T346 11T326 -34Q322 -25 307 10T270 98T220 216T163 347T107
478T57 595T19 684T0 729H121Z" />
<glyph unicode="W" glyph-name="W" horiz-adv-x="953" d="M947 725Q911 630 872 529T795 328T721 136T657 -32L493 374Q489 383 488 386T485 398Q484 394 484 390T482 383Q481 379 479 375Q443 296 410 221Q396 189 381 155T350 87T321 22T296 -34Q224 157 151
345T6 725H145Q190 598 231 486T296 287Q298 279 300 269T304 251Q304 257 308 268T315 286Q316 291 322 304T336 336T354 375T374 419Q398 470 426 531Q412 573 400 611Q389 643 379 675T363 725H481Q524 614 559 522Q574 483 589 445T616 374T636 318T648 287Q652
278 653 270T656 252Q658 261 659 270T663 287Q673 332 690 383T729 491T773 606T819 725H947Z" />
<glyph unicode="X" glyph-name="X" horiz-adv-x="646" d="M243 373Q239 378 222 405T180 470T128 551T76 631T35 696T14 729H165Q168 724 179 706T205 664T236 612T268 560T293 517T308 494Q309 493 315 480T325 458Q329 467 335 480T342 494Q345 499 355 517T380
559T411 611T441 663T466 706T480 729H631L404 366L640 0H487L344 233Q343 234 340 240T332 253T324 267T319 277Q315 267 310 256T304 244Q300 238 289 220T263 176T231 122T199 68T173 24T158 0H4Q8 6 26 34T69 102T123 186T177 271T221 338T243 373Z" />
<glyph unicode="Y" glyph-name="Y" horiz-adv-x="669" d="M396 236V0H273V236Q268 243 248 280T199 370T138 482T77 594T28 684T3 729H142Q146 722 157 701T185 649T220 582T258 509T294 439T324 380L335 346Q339 354 342 363T348 380Q361 405 378 438T413 508T450
581T484 648T511 700T526 729H665L396 236Z" />
<glyph unicode="Z" glyph-name="Z" horiz-adv-x="640" d="M188 729H610L214 118H616V0H0Q6 9 25 39T73 112T135 209T203 318T272 426T334 522T381 595T407 633H136Q120 633 104 637T76 651T55 672T47 700V765H156V752Q156 732 163 731T188 729Z" />
<glyph unicode="[" glyph-name="bracketleft" horiz-adv-x="320" d="M85 -151V758H288V658H187V-52H288V-151H85Z" />
<glyph unicode="\" glyph-name="backslash" horiz-adv-x="456" d="M145 748Q216 555 286 365T428 -19H311Q240 174 170 364T28 748H145Z" />
<glyph unicode="]" glyph-name="bracketright" horiz-adv-x="320" d="M235 758V-151H32V-52H133V658H32V758H235Z" />
<glyph unicode="^" glyph-name="asciicircum" horiz-adv-x="356" d="M177 670Q208 625 238 579T300 487H228L177 554L127 487H56L177 670Z" />
<glyph unicode="_" glyph-name="underscore" horiz-adv-x="516" d="M461 0H55V100H461V0Z" />
<glyph unicode="`" glyph-name="grave" horiz-adv-x="204" d="M42 622Q65 588 88 554T134 487H62Q31 520 0 554T-61 622H42Z" />
<glyph unicode="a" glyph-name="a" horiz-adv-x="547" d="M32 208Q32 254 50 295T98 368T169 417T255 436Q285 436 309 429T350 411T378 391T391 374L395 425H488V0H391V28Q391 33 391 37T392 44Q388 39 378 30T351 11T311 -4T256 -11Q207 -11 166 7T95 55T49
124T32 208ZM129 214Q129 186 138 162T165 121T207 93T260 83Q289 83 313 93T354 121T381 163T391 214Q391 241 382 264T355 305T313 332T260 342Q231 342 207 333T166 306T139 265T129 214Z" />
<glyph unicode="b" glyph-name="b" horiz-adv-x="548" d="M514 211Q514 163 498 123T453 52T382 6T292 -11Q243 -11 206 7T154 47Q154 43 154 40T155 31V0H59V781H155V371Q163 381 175 392T206 413T246 429T296 436Q345 436 385 421T453 376T498 305T514 211ZM410
213Q410 269 378 305T287 342Q258 342 234 333T193 306T165 265T155 214Q155 186 165 162T192 121T234 93T287 83Q316 83 339 93T377 121T401 162T410 213Z" />
<glyph unicode="c" glyph-name="c" horiz-adv-x="425" d="M343 111Q358 92 372 75T401 39Q372 16 336 3T259 -11Q212 -11 171 6T99 54T50 126T32 213Q32 259 50 299T98 370T170 418T259 436Q301 436 337 423T404 386L343 315Q308 342 259 342Q230 342 206 332T165
305T138 265T128 213Q128 186 137 163T164 121T206 93T259 83Q309 83 343 111Z" />
<glyph unicode="d" glyph-name="d" horiz-adv-x="547" d="M33 212Q33 262 49 303T95 373T164 419T251 436Q283 436 307 429T348 412T375 391T392 371V781H488V0H392V28Q392 33 393 39T394 48Q385 39 372 29T341 9T301 -5T249 -11Q198 -11 158 6T90 54T48 125T33
212ZM129 214Q129 186 138 162T165 121T207 93T260 83Q289 83 313 93T355 121T382 163T392 214Q392 241 383 264T356 305T314 332T260 342Q231 342 207 333T166 306T139 265T129 214Z" />
<glyph unicode="e" glyph-name="e" horiz-adv-x="474" d="M424 49Q393 21 349 5T259 -11Q212 -11 171 6T99 54T50 125T32 212Q32 258 50 298T98 369T169 417T255 435Q327 435 381 392T459 277Q429 266 390 251T307 218T221 184T142 152Q159 121 189 102T257 83Q283
83 309 92T353 118L424 49ZM340 299Q328 321 304 331T257 342Q230 342 206 332T165 304T138 264T128 217V213Q153 223 181 234T238 258T293 280T340 299Z" />
<glyph unicode="f" glyph-name="f" horiz-adv-x="339" d="M26 332V426H99V516Q99 650 161 713T341 781V690Q263 685 229 640T195 512V426H327V332H195V0H99V332H26Z" />
<glyph unicode="g" glyph-name="g" horiz-adv-x="547" d="M33 210Q33 258 50 299T96 371T165 419T250 436Q284 436 310 427T353 407T380 386T392 374Q392 385 394 398T396 425H488V22Q488 -32 471 -74T424 -145T351 -189T257 -204Q218 -204 189 -196T136 -175T93
-146T55 -114L117 -49Q145 -75 177 -93T255 -112Q317 -112 354 -82T391 3Q391 8 391 14T392 28Q392 37 394 44T396 56Q387 46 375 34T345 12T304 -4T251 -11Q203 -11 163 6T94 53T49 123T33 210ZM129 214Q129 186 138 162T165 121T207 93T260 83Q289 83 313 93T355
121T382 163T392 214Q392 241 383 264T356 305T314 332T260 342Q231 342 207 333T166 306T139 265T129 214Z" />
<glyph unicode="h" glyph-name="h" horiz-adv-x="522" d="M59 781H155V322Q177 373 217 404T320 436Q386 436 425 401T466 308V0H371V263Q369 294 349 316T287 341Q258 341 234 331T192 302T165 259T155 205V0H59V781Z" />
<glyph unicode="i" glyph-name="i" horiz-adv-x="214" d="M48 590Q48 616 67 633T108 650Q130 650 148 633T167 590Q167 563 149 547T108 530Q86 530 67 546T48 590ZM155 0H59V425H155V0Z" />
<glyph unicode="j" glyph-name="j" horiz-adv-x="214" d="M64 -205Q47 -186 31 -169T-2 -133Q27 -110 43 -77T59 4V425H155V0Q155 -69 131 -120T64 -205ZM51 590Q51 616 69 633T111 650Q133 650 151 633T169 590Q169 563 151 547T111 530Q88 530 70 546T51 590Z" />
<glyph unicode="k" glyph-name="k" horiz-adv-x="458" d="M365 435L422 379Q384 344 350 311T277 242Q322 182 365 121T453 0H343Q310 45 276 89T210 179L155 129V0H59V781H155V240Q209 291 260 337T365 435Z" />
<glyph unicode="l" glyph-name="l" horiz-adv-x="213" d="M154 0H59V781H154V0Z" />
<glyph unicode="m" glyph-name="m" horiz-adv-x="819" d="M59 425H144Q145 407 146 393T148 367T150 342T152 316Q176 370 212 402T313 436Q376 436 413 405T458 322Q470 347 485 368T518 404T561 427T617 436Q683 436 722 401T763 308V0H667V263Q665 294 646
316T583 341Q524 341 492 303T459 204V0H363V263Q361 294 342 316T279 341Q220 341 188 303T155 205V0H59V425Z" />
<glyph unicode="n" glyph-name="n" horiz-adv-x="522" d="M59 425H143Q145 389 147 367T152 316Q175 370 217 403T322 436Q387 436 425 401T466 308V0H371V263Q369 294 349 316T287 341Q258 341 234 331T192 302T165 259T155 205V0H59V425Z" />
<glyph unicode="o" glyph-name="o" d="M32 213Q32 259 49 299T98 370T170 417T259 435Q307 435 348 418T418 370T465 300T482 213Q482 167 466 126T419 55T348 7T258 -11Q211 -11 170 5T99 50T50 121T32 213ZM127 212Q127 185 137 162T164 121T205 93T256 83Q283
83 306 93T347 120T375 161T386 212Q386 239 376 262T348 303T307 331T256 342Q229 342 206 332T165 304T137 263T127 212Z" />
<glyph unicode="p" glyph-name="p" horiz-adv-x="547" d="M410 213Q410 269 378 305T287 342Q258 342 234 333T193 306T165 265T155 214Q155 186 165 162T192 121T234 93T287 83Q316 83 339 93T377 121T401 162T410 213ZM514 211Q514 163 498 123T453 52T382 6T292
-11Q243 -11 206 7T154 47Q154 43 154 40T155 31V-204H59V425H151Q151 411 153 397T155 371Q163 381 175 392T206 413T246 429T296 436Q345 436 385 421T453 376T498 305T514 211Z" />
<glyph unicode="q" glyph-name="q" horiz-adv-x="547" d="M129 214Q129 186 138 162T165 121T207 93T260 83Q289 83 313 93T355 121T382 163T392 214Q392 241 383 264T356 305T314 332T260 342Q231 342 207 333T166 306T139 265T129 214ZM33 212Q33 262 49 303T95
373T164 419T251 436Q283 436 307 429T348 412T375 391T392 371Q392 383 394 397T396 425H488V-204H392V28Q392 33 393 39T394 48Q385 39 372 29T341 9T301 -5T249 -11Q198 -11 158 6T90 54T48 125T33 212Z" />
<glyph unicode="r" glyph-name="r" horiz-adv-x="324" d="M297 312Q269 312 244 305T199 284T167 248T155 197V0H59V425H143Q145 389 147 367T152 316Q165 344 187 366T232 403T279 427T318 436L297 312Z" />
<glyph unicode="s" glyph-name="s" horiz-adv-x="350" d="M301 387Q295 378 287 367T270 345T257 328T251 320Q251 320 246 323T232 331T210 338T184 342Q170 342 155 336T139 309Q139 292 152 281T185 260T228 240T271 215T304 178T318 122Q318 93 308 69T278
28T231 1T170 -9Q129 -9 91 5T30 45Q37 53 47 65T66 88T81 106T88 114Q88 115 94 111T112 100T138 89T169 84Q194 84 207 95T221 122Q221 138 208 148T175 166T132 185T89 210T56 248T42 308Q42 344 55 368T88 407T133 428T180 435Q211 435 244 423T301 387Z" />
<glyph unicode="t" glyph-name="t" horiz-adv-x="316" d="M98 611H193V425H304V339H193V0H98V339H26V425H98V611Z" />
<glyph unicode="u" glyph-name="u" horiz-adv-x="522" d="M463 -10H383L371 108Q348 57 308 24T201 -10Q135 -10 97 24T56 116V425H152V161Q154 130 173 109T236 85Q265 85 289 95T330 123T358 166T368 220V425H463V-10Z" />
<glyph unicode="v" glyph-name="v" horiz-adv-x="457" d="M229 -25Q169 88 115 199T4 425H108Q146 351 167 306T201 233T218 189T229 154Q235 172 240 188T258 233T291 306T351 425H454Q397 311 342 200T229 -25Z" />
<glyph unicode="w" glyph-name="w" horiz-adv-x="662" d="M288 363L259 425H342Q372 360 392 314T425 237T445 186T457 154Q461 181 467 203T486 253T516 321T562 425H658L457 -25Q438 13 423 49T393 122T363 194T328 269Q294 193 264 122T200 -25L9 425H105Q132
360 149 320T176 252T191 203T200 154Q203 163 207 175T221 209T246 268T288 363Z" />
<glyph unicode="x" glyph-name="x" horiz-adv-x="450" d="M165 226Q131 276 93 325T20 425H138Q150 406 160 391T181 361T203 332T227 299Q239 317 250 332T272 361T294 390T317 424H424Q405 395 388 372T355 325T321 277T283 222Q300 197 321 169T364 111T406
54T444 0H321Q294 38 268 69T215 138Q189 100 166 70T116 0H9Q47 57 87 113T165 226Z" />
<glyph unicode="y" glyph-name="y" horiz-adv-x="490" d="M181 -204H85Q100 -174 113 -147T139 -91T166 -32T197 33Q174 78 150 128T100 229T51 330T4 425H108Q146 351 170 301T209 217T232 162T245 122Q251 140 259 161T282 217T321 301T383 425H486L181 -204Z" />
<glyph unicode="z" glyph-name="z" horiz-adv-x="454" d="M424 0H14L252 343H121Q86 343 62 363T37 416V465H123V452Q123 433 131 429T157 425H428L198 94H424V0Z" />
<glyph unicode="{" glyph-name="braceleft" horiz-adv-x="339" d="M27 252V349Q52 350 67 364T92 398T104 442T107 487V638Q107 686 117 710T144 745T185 757T236 758H306V658H265Q250 658 240 655T223 641T215 610T212 556V430Q212 403 205 383T188 346T167 320T147
302Q156 296 167 286T188 259T205 223T212 176V51Q212 18 214 -2T223 -34T239 -48T265 -52H306V-152H236Q211 -152 188 -152T147 -141T118 -108T107 -41V114Q107 135 104 159T92 203T68 237T27 252Z" />
<glyph unicode="|" glyph-name="bar" horiz-adv-x="272" d="M84 -236V711H188V-236H84Z" />
<glyph unicode="}" glyph-name="braceright" horiz-adv-x="340" d="M313 349V252Q290 251 275 239T250 209T236 169T232 124V-32Q232 -79 222 -104T195 -139T154 -151T104 -152H33V-52H74Q90 -52 100 -49T116 -34T124 -3T127 51V167Q127 197 134 219T151 258T172
285T193 302Q184 309 173 319T151 346T134 382T127 430V556Q127 589 125 609T116 640T100 654T74 658H33V758H104Q129 758 152 757T193 746T221 711T232 638V477Q232 456 236 434T250 393T275 362T313 349Z" />
<glyph unicode="~" glyph-name="asciitilde" horiz-adv-x="471" d="M228 485Q212 499 201 504T176 510Q169 510 161 509T146 502T132 489T125 466L71 468Q72 489 81 506T103 536T133 556T166 563Q191 563 210 555T246 531Q262 516 273 511T298 506Q305 506 313
507T328 514T341 527T349 550L403 548Q402 527 393 510T371 480T341 460T308 453Q284 453 265 461T228 485Z" />
<glyph unicode="&#xa1;" glyph-name="exclamdown" horiz-adv-x="273" d="M85 381H188V-213H85V381ZM137 559Q159 559 178 541T197 496Q197 469 178 452T137 435Q113 435 94 452T75 496Q75 523 94 541T137 559Z" />
<glyph unicode="&#xa2;" glyph-name="cent" horiz-adv-x="439" d="M344 111Q359 92 373 75T402 39Q346 -6 271 -11V-68H201V-3Q165 7 134 27T81 76T46 139T33 213Q33 251 45 286T80 349T134 397T201 428V492H271V436Q309 434 342 421T405 386L344 315Q313 338
271 341V83Q313 86 344 111ZM129 213Q129 174 148 143T201 95V329Q168 314 149 284T129 213Z" />
<glyph unicode="&#xa3;" glyph-name="sterling" horiz-adv-x="620" d="M219 100H374Q407 100 427 102T458 111T472 127T476 153V194Q502 194 528 194T580 195V86Q580 67 575 51T556 24T519 7T460 0H38V100H83Q98 100 108 103T125 115T133 141T136 188V267H70V367H136V548Q136
584 152 614T197 667T267 703T358 716Q431 716 477 689T549 611Q529 600 510 589T471 566Q467 567 462 575T446 592T414 608T360 616Q304 616 272 592T239 518V367H355V267H239V169Q239 145 236 129T219 100Z" />
<glyph unicode="&#xa4;" glyph-name="currency" horiz-adv-x="448" d="M69 361Q69 406 92 441L66 468L115 517L142 490Q160 501 180 507T223 514Q267 514 305 490L332 517L381 467L356 442Q380 404 380 361Q380 315 354 278L382 251L333 202L304 230Q269 207 223
207Q179 207 143 229L115 201L66 250L93 277Q69 315 69 361ZM139 360Q139 325 164 300T224 275Q242 275 257 281T284 299T303 326T310 360Q310 378 303 393T285 421T258 439T224 446Q189 446 164 421T139 360Z" />
<glyph unicode="&#xa5;" glyph-name="yen" horiz-adv-x="714" d="M419 236V168H518V100H419V0H296V100H185V168H296V236L280 263H185V331H243Q215 383 180 448T112 574T55 677T26 729H165Q169 722 180 701T208 649T243 582T281 509T317 439T347 380L358 346Q362
354 365 363T371 380Q384 405 401 438T436 508T473 581T507 648T534 700T549 729H688L470 331H518V263H433L419 236Z" />
<glyph unicode="&#xa6;" glyph-name="brokenbar" horiz-adv-x="230" d="M167 -237H63V119H167V-237ZM167 356H63V711H167V356Z" />
<glyph unicode="&#xa7;" glyph-name="section" horiz-adv-x="385" d="M141 149Q120 182 106 205T82 244T68 268T61 280Q60 280 60 282Q59 283 59 283Q47 307 44 335T44 390T60 441T93 485Q105 494 119 503T153 520Q144 534 136 548T119 579Q98 614 93 639T92 684T112
716T147 739Q187 760 222 783Q236 761 248 739T275 696Q266 691 256 686T238 675Q226 668 219 662T211 647T213 625T229 593H231L322 442Q337 418 341 391T342 336T324 285T288 241Q276 232 262 222T228 204Q237 190 246 175T264 144Q285 109 291 83T292 38T273
5T238 -19Q218 -30 201 -39T163 -61L112 25Q121 31 130 36T148 47Q160 54 166 61T173 79T165 106T141 149ZM133 378Q126 352 143 332T188 309Q211 309 228 323T248 363Q249 385 235 402T195 422Q176 422 157 413T133 378Z" />
<glyph unicode="&#xa8;" glyph-name="dieresis" horiz-adv-x="376" d="M234 534Q234 560 253 578T296 596Q317 596 336 578T356 534Q356 506 337 489T296 472Q273 472 254 489T234 534ZM41 534Q41 560 60 578T103 596Q124 596 143 578T163 534Q163 506 144 489T103
472Q80 472 61 489T41 534Z" />
<glyph unicode="&#xa9;" glyph-name="copyright" horiz-adv-x="610" d="M305 145Q353 145 394 162T466 209T514 281T532 372Q532 421 515 463T466 535T394 583T305 600Q257 600 216 583T144 536T96 463T78 372Q78 323 95 282T144 210T216 162T305 145ZM305 112Q251
112 204 132T121 186T65 268T44 372Q44 428 64 476T120 559T203 613T305 633Q359 633 406 614T489 559T545 476T566 372Q566 316 546 269T490 187T407 132T305 112ZM413 234Q402 226 375 216T309 206Q270 206 240 219T188 255T156 308T144 372Q144 409 157 441T194
495T248 531T314 544Q341 544 367 537T403 520Q399 514 397 510T392 502T386 492T378 477Q367 485 349 488T316 491Q291 491 270 482T233 457T208 420T199 377Q199 355 207 335T231 298T267 273T313 263Q327 263 340 266T364 272T382 279T389 285L413 234Z" />
<glyph unicode="&#xaa;" glyph-name="ordfeminine" horiz-adv-x="432" d="M38 456Q38 489 51 519T85 571T136 607T199 620Q221 620 238 615T267 602T287 588T297 576L300 613H367V306H297V326Q297 330 297 333T298 338Q295 334 288 328T268 315T239 303T199 298Q164
298 135 311T84 345T50 395T38 456ZM108 460Q108 420 134 393T202 366Q245 366 271 393T297 460Q297 499 271 526T202 553Q160 553 134 527T108 460Z" />
<glyph unicode="&#xab;" glyph-name="guillemotleft" horiz-adv-x="456" d="M386 47L212 243Q215 246 228 260T259 296T299 341T338 385T370 420T386 438V322Q383 319 374 308T356 283T337 259T324 243Q328 239 337 228T355 203T374 179T386 163V47ZM212 47L39
243Q42 246 55 260T86 296T125 341T164 385T196 420T212 438V321Q209 318 200 307T182 283T163 259T151 243Q154 239 163 228T181 203T200 179T212 163V47Z" />
<glyph unicode="&#xac;" glyph-name="logicalnot" horiz-adv-x="484" d="M323 150V181H61V254H426V150H323Z" />
<glyph unicode="&#xae;" glyph-name="registered" horiz-adv-x="610" d="M305 112Q251 112 204 132T121 186T65 268T44 372Q44 428 64 476T120 559T203 613T305 633Q359 633 406 614T489 559T545 476T566 372Q566 316 546 269T490 187T407 132T305 112ZM305 145Q353
145 394 162T466 209T514 281T532 372Q532 421 515 463T466 535T394 583T305 600Q257 600 216 583T144 536T96 463T78 372Q78 323 95 282T144 210T216 162T305 145ZM194 210V555H291Q348 555 382 526T417 444Q417 415 405 388T365 345Q386 311 405 280T451 210H381L305
329H300H251V210H194ZM251 383H298Q316 383 328 389T346 404T356 423T359 442Q359 450 357 460T347 479T329 494T298 500H251V383Z" />
<glyph unicode="&#xaf;" glyph-name="overscore" horiz-adv-x="406" d="M87 482V546H321V482H87Z" />
<glyph unicode="&#xb0;" glyph-name="degree" horiz-adv-x="304" d="M153 523Q173 523 186 536T199 568Q199 587 186 600T153 614Q134 614 121 601T108 568Q108 549 121 536T153 523ZM43 569Q43 591 51 611T75 645T110 668T153 677Q175 677 194 669T229 646T252
611T261 569Q261 546 253 527T229 493T195 470T153 461Q130 461 110 469T75 492T52 526T43 569Z" />
<glyph unicode="&#xb1;" glyph-name="plusminus" horiz-adv-x="491" d="M193 214V347H63V446H193V580H298V446H428V347H298V214H193ZM428 76H63V176H428V76Z" />
<glyph unicode="&#xb2;" glyph-name="twosuperior" horiz-adv-x="341" d="M181 424H288V375H60Q90 406 119 435T170 491T205 543T219 593Q219 609 214 620T200 640T181 652T163 656Q146 656 135 650T117 636T108 618T105 602Q105 569 125 551L95 520Q85 525 78
535T65 557T57 581T54 602Q54 622 61 640T82 673T116 696T163 705Q187 705 207 697T241 673T263 639T271 599Q271 551 245 510T181 424Z" />
<glyph unicode="&#xb3;" glyph-name="threesuperior" horiz-adv-x="283" d="M90 539Q105 568 124 597T158 655H64V705H237Q221 676 204 647T169 588Q198 573 216 547T235 486Q235 463 226 443T202 408T166 385T123 376Q99 376 78 385T41 412L78 446Q97 425 123
425Q148 425 166 443T184 486Q184 511 166 528T123 546Q104 546 90 539Z" />
<glyph unicode="&#xb4;" glyph-name="acute" horiz-adv-x="293" d="M102 487Q125 520 147 554T193 622H296Q266 588 235 554T173 487H102Z" />
<glyph unicode="&#xb5;" glyph-name="mu" horiz-adv-x="568" d="M484 -10H404L392 108Q369 57 329 24T222 -10Q195 -10 173 -4V-201H78V101Q77 106 77 116V425H173V161Q175 130 194 109T257 85Q286 85 310 95T351 123T379 166T389 220V425H484V-10Z" />
<glyph unicode="&#xb6;" glyph-name="paragraph" horiz-adv-x="573" d="M301 0H198V429Q163 429 133 442T81 477T46 530T33 596Q33 630 46 660T81 713T133 749T198 762H466V0H364V662H301V0Z" />
<glyph unicode="&#xb7;" glyph-name="middot" horiz-adv-x="232" d="M55 288Q55 314 74 332T117 350Q138 350 157 332T177 288Q177 259 158 243T117 226Q94 226 75 242T55 288Z" />
<glyph unicode="&#xb8;" glyph-name="cedilla" horiz-adv-x="459" d="M184 0H246V-8Q246 -23 250 -31T261 -44T275 -53T289 -62Q309 -78 318 -99T327 -149Q327 -169 320 -189T299 -225T264 -251T214 -261Q178 -261 148 -242T103 -180Q116 -172 130 -165T158 -151Q163
-166 175 -176T205 -186Q228 -186 239 -171T251 -133Q251 -114 241 -104T218 -84T195 -66T184 -39V0Z" />
<glyph unicode="&#xb9;" glyph-name="onesuperior" horiz-adv-x="186" d="M48 659V705H122V401H74V659H48Z" />
<glyph unicode="&#xba;" glyph-name="ordmasculine" horiz-adv-x="404" d="M40 460Q40 493 53 522T88 573T140 607T204 620Q238 620 267 608T319 573T353 522T365 460Q365 427 353 398T320 346T268 311T203 298Q170 298 140 309T88 342T53 394T40 460ZM109 459Q109
440 116 423T136 394T165 374T202 366Q221 366 238 373T268 393T288 423T296 459Q296 478 289 495T268 525T238 545T202 553Q182 553 166 546T136 525T116 495T109 459Z" />
<glyph unicode="&#xbb;" glyph-name="guillemotright" horiz-adv-x="456" d="M70 163Q73 167 82 178T100 203T119 227T132 243Q128 247 119 258T101 283T82 307T70 322V438Q73 435 86 421T117 386T157 341T196 296T228 261T244 243L70 47V163ZM244 163Q247 167
256 178T274 203T293 227T305 243Q302 247 293 258T275 282T256 306T244 321V438Q247 435 260 421T291 386T330 341T369 296T401 261T417 243L244 47V163Z" />
<glyph unicode="&#xbc;" glyph-name="onequarter" horiz-adv-x="804" d="M182 -19Q254 174 323 364T465 748H568L286 -19H182ZM402 125Q471 215 549 311T696 497V199H769V125H696V0H619V125H402ZM43 632V702H157V234H83V632H43ZM619 290Q613 282 604 270T584 245T565
220T550 199H619V290Z" />
<glyph unicode="&#xbd;" glyph-name="onehalf" horiz-adv-x="840" d="M185 -19Q257 174 326 364T468 748H571L289 -19H185ZM652 70H805V-1H478Q522 43 563 85T636 166T687 241T707 312Q707 335 699 352T679 380T652 396T626 402Q601 402 585 394T560 373T547 347T543
324Q543 301 550 283T572 251L529 207Q515 214 504 228T486 260T474 294T470 324Q470 353 480 380T510 427T559 460T626 473Q661 473 689 461T738 427T770 379T781 321Q781 287 771 255T743 192T702 131T652 70ZM43 632V702H157V234H83V632H43Z" />
<glyph unicode="&#xbe;" glyph-name="threequarters" horiz-adv-x="992" d="M356 -19Q428 174 497 364T639 748H742L460 -19H356ZM114 454Q137 500 167 545T221 637H73V715H345Q319 669 292 623T238 531Q284 508 312 467T340 372Q340 336 326 305T288 250T233
213T165 199Q127 199 94 214T37 255L95 309Q123 276 166 276Q185 276 202 283T233 304T253 334T261 372Q261 391 254 408T233 438T203 458T166 466Q136 466 114 454ZM590 125Q624 170 661 217T737 311T812 405T884 497V199H958V125H884V0H807V125H590ZM807 290Q801
282 792 270T772 245T753 220T738 199H807V290Z" />
<glyph unicode="&#xbf;" glyph-name="questiondown" horiz-adv-x="475" d="M353 -11Q375 -19 397 -27T442 -44Q436 -64 424 -92T389 -145T329 -187T235 -205Q193 -205 157 -190T94 -147T52 -84T36 -7Q36 50 62 93T135 171Q148 180 164 191T194 216T219 249T229
293V373H333V274Q333 241 323 220T297 184T259 155T215 124Q141 68 141 -7Q141 -49 166 -77T235 -105Q263 -105 282 -99T314 -82T336 -53T353 -11ZM282 545Q305 545 324 529T344 484Q344 458 325 440T282 422Q260 422 241 440T222 484Q222 512 241 528T282 545Z"
/>
<glyph unicode="&#xc0;" glyph-name="Agrave" horiz-adv-x="653" d="M653 0Q649 9 634 44T597 132T547 249T490 381T434 512T384 629T346 717T326 762Q322 753 307 718T270 630T220 513T163 381T107 250T57 133T19 45T0 0H121L201 192H452Q466 158 479 127T503
69T521 25T532 0H653ZM316 469Q316 470 320 482T326 505Q328 495 332 483T337 469L409 295H243L316 469ZM291 905Q314 871 337 837T383 770H311Q280 803 249 837T188 905H291Z" />
<glyph unicode="&#xc1;" glyph-name="Aacute" horiz-adv-x="653" d="M653 0Q649 9 634 44T597 132T547 249T490 381T434 512T384 629T346 717T326 762Q322 753 307 718T270 630T220 513T163 381T107 250T57 133T19 45T0 0H121L201 192H452Q466 158 479 127T503
69T521 25T532 0H653ZM316 469Q316 470 320 482T326 505Q328 495 332 483T337 469L409 295H243L316 469ZM275 770Q298 803 320 837T366 905H469Q439 871 408 837T346 770H275Z" />
<glyph unicode="&#xc2;" glyph-name="Acircumflex" horiz-adv-x="653" d="M653 0Q649 9 634 44T597 132T547 249T490 381T434 512T384 629T346 717T326 762Q322 753 307 718T270 630T220 513T163 381T107 250T57 133T19 45T0 0H121L201 192H452Q466 158 479 127T503
69T521 25T532 0H653ZM335 954Q366 909 396 863T458 771H386L335 838L285 771H214L335 954ZM316 469Q316 470 320 482T326 505Q328 495 332 483T337 469L409 295H243L316 469Z" />
<glyph unicode="&#xc3;" glyph-name="Atilde" horiz-adv-x="653" d="M653 0Q649 9 634 44T597 132T547 249T490 381T434 512T384 629T346 717T326 762Q322 753 307 718T270 630T220 513T163 381T107 250T57 133T19 45T0 0H121L201 192H452Q466 158 479 127T503
69T521 25T532 0H653ZM318 800Q302 814 291 819T266 825Q259 825 251 824T236 817T222 804T215 781L161 783Q162 804 171 821T193 851T223 871T256 878Q281 878 300 870T336 846Q352 831 363 826T388 821Q395 821 403 822T418 829T431 842T439 865L493 863Q492
842 483 825T461 795T431 775T398 768Q374 768 355 776T318 800ZM316 469Q316 470 320 482T326 505Q328 495 332 483T337 469L409 295H243L316 469Z" />
<glyph unicode="&#xc4;" glyph-name="Adieresis" horiz-adv-x="653" d="M653 0Q649 9 634 44T597 132T547 249T490 381T434 512T384 629T346 717T326 762Q322 753 307 718T270 630T220 513T163 381T107 250T57 133T19 45T0 0H121L201 192H452Q466 158 479 127T503
69T521 25T532 0H653ZM316 469Q316 470 320 482T326 505Q328 495 332 483T337 469L409 295H243L316 469ZM361 837Q361 863 380 881T423 899Q444 899 463 881T483 837Q483 809 464 792T423 775Q400 775 381 792T361 837ZM168 837Q168 863 187 881T230 899Q251 899
270 881T290 837Q290 809 271 792T230 775Q207 775 188 792T168 837Z" />
<glyph unicode="&#xc5;" glyph-name="Aring" horiz-adv-x="653" d="M532 0Q529 7 522 25T503 69T479 126T452 192H201L121 0H0Q4 9 19 44T56 132T106 249T163 381T219 512T269 629T307 717T326 762Q330 753 345 718T383 630T433 513T490 381T546 250T596 133T634
45T653 0H532ZM239 852Q239 870 246 885T265 913T293 932T327 939Q345 939 361 932T389 913T408 886T415 852Q415 834 408 818T389 790T361 770T327 763Q309 763 293 770T265 789T246 818T239 852ZM243 295H409L337 469Q336 470 332 482T326 505Q324 495 320 483T316
469L243 295ZM294 850Q294 836 303 827T327 818Q341 818 350 827T360 850Q360 865 351 874T327 884Q313 884 304 875T294 850Z" />
<glyph unicode="&#xc6;" glyph-name="AE" horiz-adv-x="743" d="M313 0V192H202L122 0H1Q5 9 19 43T55 128T103 239T156 364T210 489T258 601T294 685T313 729H693V618H428V422H653V308H428V114H707V0H313ZM313 460Q304 439 284 392T241 287H313V460Z" />
<glyph unicode="&#xc7;" glyph-name="Ccedilla" horiz-adv-x="640" d="M633 54Q622 46 603 36T556 17T496 1T424 -7V-8Q424 -23 428 -31T439 -44T453 -53T467 -62Q487 -78 496 -99T505 -149Q505 -169 498 -189T477 -225T442 -251T392 -261Q356 -261 326 -242T281
-180Q294 -172 308 -165T336 -151Q341 -166 353 -176T383 -186Q406 -186 417 -171T429 -133Q429 -114 419 -105T396 -86T373 -63T362 -23V-6Q285 1 225 33T123 114T59 226T37 359Q37 441 67 510T148 630T268 709T415 737Q445 737 475 733T533 721T580 705T610 686Q601
672 596 663T586 645T574 623T555 590Q543 598 526 604T491 613T453 619T419 621Q363 621 316 600T234 545T180 464T160 369Q160 321 178 276T230 195T310 139T412 117Q444 117 474 123T527 138T564 154T580 165L633 54Z" />
<glyph unicode="&#xc8;" glyph-name="Egrave" horiz-adv-x="619" d="M84 0V729H568V618H206V422H528V308H206V114H582V0H84ZM314 905Q337 871 360 837T406 770H334Q303 803 272 837T211 905H314Z" />
<glyph unicode="&#xc9;" glyph-name="Eacute" horiz-adv-x="619" d="M84 0V729H568V618H206V422H528V308H206V114H582V0H84ZM269 770Q292 803 314 837T360 905H463Q433 871 402 837T340 770H269Z" />
<glyph unicode="&#xca;" glyph-name="Ecircumflex" horiz-adv-x="619" d="M84 0V729H568V618H206V422H528V308H206V114H582V0H84ZM339 954Q370 909 400 863T462 771H390L339 838L289 771H218L339 954Z" />
<glyph unicode="&#xcb;" glyph-name="Edieresis" horiz-adv-x="619" d="M84 0V729H568V618H206V422H528V308H206V114H582V0H84ZM375 837Q375 863 394 881T437 899Q458 899 477 881T497 837Q497 809 478 792T437 775Q414 775 395 792T375 837ZM182 837Q182 863
201 881T244 899Q265 899 284 881T304 837Q304 809 285 792T244 775Q221 775 202 792T182 837Z" />
<glyph unicode="&#xcc;" glyph-name="Igrave" horiz-adv-x="291" d="M84 729H207V0H84V729ZM109 905Q132 871 155 837T201 770H129Q98 803 67 837T6 905H109Z" />
<glyph unicode="&#xcd;" glyph-name="Iacute" horiz-adv-x="291" d="M84 729H207V0H84V729ZM94 770Q117 803 139 837T185 905H288Q258 871 227 837T165 770H94Z" />
<glyph unicode="&#xce;" glyph-name="Icircumflex" horiz-adv-x="291" d="M84 729H207V0H84V729ZM146 954Q177 909 207 863T269 771H197L146 838L96 771H25L146 954Z" />
<glyph unicode="&#xcf;" glyph-name="Idieresis" horiz-adv-x="291" d="M84 729H207V0H84V729ZM184 837Q184 863 203 881T246 899Q267 899 286 881T306 837Q306 809 287 792T246 775Q223 775 204 792T184 837ZM-9 837Q-9 863 10 881T53 899Q74 899 93 881T113
837Q113 809 94 792T53 775Q30 775 11 792T-9 837Z" />
<glyph unicode="&#xd0;" glyph-name="Eth" horiz-adv-x="719" d="M18 396H90V729H279Q389 729 465 696T590 609T659 489T681 354Q681 272 652 207T572 95T456 25T315 0H90V314H18V396ZM296 116Q353 116 401 132T484 179T538 256T558 362Q558 430 535 477T475 554T395
597T311 611H213V396H321V314H213V116H296Z" />
<glyph unicode="&#xd1;" glyph-name="Ntilde" horiz-adv-x="812" d="M728 729V-34Q721 -25 697 -1T638 56T561 130T474 212T388 294T312 367T254 424T223 457Q222 459 215 467T203 483L206 451V0H84V762Q91 753 115 730T174 673T251 601T338 522T424 442T501 370T559
314T590 282L609 254L606 288V729H728ZM393 789Q377 803 366 808T341 814Q334 814 326 813T311 806T297 793T290 770L236 772Q237 793 246 810T268 840T298 860T331 867Q356 867 375 859T411 835Q427 820 438 815T463 810Q470 810 478 811T493 818T506 831T514
854L568 852Q567 831 558 814T536 784T506 764T473 757Q449 757 430 765T393 789Z" />
<glyph unicode="&#xd2;" glyph-name="Ograve" horiz-adv-x="817" d="M36 363Q36 439 65 507T145 626T263 707T408 737Q484 737 552 707T671 626T751 507T781 363Q781 286 752 219T671 101T552 21T408 -8Q331 -8 264 21T146 100T66 218T36 363ZM159 363Q159 310
178 264T232 183T312 128T411 108Q462 108 507 128T586 182T639 263T659 363Q659 416 639 462T585 544T506 599T408 619Q356 619 311 599T232 544T179 463T159 363ZM396 905Q419 871 442 837T488 770H416Q385 803 354 837T293 905H396Z" />
<glyph unicode="&#xd3;" glyph-name="Oacute" horiz-adv-x="817" d="M36 363Q36 439 65 507T145 626T263 707T408 737Q484 737 552 707T671 626T751 507T781 363Q781 286 752 219T671 101T552 21T408 -8Q331 -8 264 21T146 100T66 218T36 363ZM159 363Q159 310
178 264T232 183T312 128T411 108Q462 108 507 128T586 182T639 263T659 363Q659 416 639 462T585 544T506 599T408 619Q356 619 311 599T232 544T179 463T159 363ZM350 770Q373 803 395 837T441 905H544Q514 871 483 837T421 770H350Z" />
<glyph unicode="&#xd4;" glyph-name="Ocircumflex" horiz-adv-x="817" d="M36 363Q36 439 65 507T145 626T263 707T408 737Q484 737 552 707T671 626T751 507T781 363Q781 286 752 219T671 101T552 21T408 -8Q331 -8 264 21T146 100T66 218T36 363ZM159 363Q159
310 178 264T232 183T312 128T411 108Q462 108 507 128T586 182T639 263T659 363Q659 416 639 462T585 544T506 599T408 619Q356 619 311 599T232 544T179 463T159 363ZM415 954Q446 909 476 863T538 771H466L415 838L365 771H294L415 954Z" />
<glyph unicode="&#xd5;" glyph-name="Otilde" horiz-adv-x="817" d="M36 363Q36 439 65 507T145 626T263 707T408 737Q484 737 552 707T671 626T751 507T781 363Q781 286 752 219T671 101T552 21T408 -8Q331 -8 264 21T146 100T66 218T36 363ZM159 363Q159 310
178 264T232 183T312 128T411 108Q462 108 507 128T586 182T639 263T659 363Q659 416 639 462T585 544T506 599T408 619Q356 619 311 599T232 544T179 463T159 363ZM400 823Q384 837 373 842T348 848Q341 848 333 847T318 840T304 827T297 804L243 806Q244 827
253 844T275 874T305 894T338 901Q363 901 382 893T418 869Q434 854 445 849T470 844Q477 844 485 845T500 852T513 865T521 888L575 886Q574 865 565 848T543 818T513 798T480 791Q456 791 437 799T400 823Z" />
<glyph unicode="&#xd6;" glyph-name="Odieresis" horiz-adv-x="817" d="M36 363Q36 439 65 507T145 626T263 707T408 737Q484 737 552 707T671 626T751 507T781 363Q781 286 752 219T671 101T552 21T408 -8Q331 -8 264 21T146 100T66 218T36 363ZM159 363Q159
310 178 264T232 183T312 128T411 108Q462 108 507 128T586 182T639 263T659 363Q659 416 639 462T585 544T506 599T408 619Q356 619 311 599T232 544T179 463T159 363ZM449 837Q449 863 468 881T511 899Q532 899 551 881T571 837Q571 809 552 792T511 775Q488
775 469 792T449 837ZM256 837Q256 863 275 881T318 899Q339 899 358 881T378 837Q378 809 359 792T318 775Q295 775 276 792T256 837Z" />
<glyph unicode="&#xd7;" glyph-name="multiply" horiz-adv-x="449" d="M312 0Q290 23 268 44T223 88Q203 66 181 45T138 2L49 88Q71 111 92 132T137 176L46 266L136 357L227 265L315 354Q336 332 357 310T400 265L315 179Q338 157 359 135T403 89L312 0Z" />
<glyph unicode="&#xd8;" glyph-name="Oslash" horiz-adv-x="817" d="M36 363Q36 439 65 507T145 626T263 707T408 737Q467 737 521 719T620 668L677 734L734 682L678 617Q726 566 753 501T781 363Q781 286 752 219T671 101T552 21T408 -8Q349 -8 296 9T198 57L133
-18L74 34L138 108Q90 158 63 223T36 363ZM159 363Q159 316 174 274T217 199L543 578Q514 598 480 608T408 619Q356 619 311 599T232 544T179 463T159 363ZM275 147Q304 128 338 118T411 108Q462 108 507 128T586 182T639 263T659 363Q659 410 644 451T600 526L275
147Z" />
<glyph unicode="&#xd9;" glyph-name="Ugrave" horiz-adv-x="720" d="M359 -8Q300 -8 249 11T159 66T99 150T77 260V729H199V263Q199 231 211 203T245 154T296 121T359 108Q393 108 422 120T474 154T508 203T521 263V729H643V260Q643 200 621 151T561 66T470 12T359
-8ZM340 905Q363 871 386 837T432 770H360Q329 803 298 837T237 905H340Z" />
<glyph unicode="&#xda;" glyph-name="Uacute" horiz-adv-x="720" d="M359 -8Q300 -8 249 11T159 66T99 150T77 260V729H199V263Q199 231 211 203T245 154T296 121T359 108Q393 108 422 120T474 154T508 203T521 263V729H643V260Q643 200 621 151T561 66T470 12T359
-8ZM306 770Q329 803 351 837T397 905H500Q470 871 439 837T377 770H306Z" />
<glyph unicode="&#xdb;" glyph-name="Ucircumflex" horiz-adv-x="720" d="M359 -8Q300 -8 249 11T159 66T99 150T77 260V729H199V263Q199 231 211 203T245 154T296 121T359 108Q393 108 422 120T474 154T508 203T521 263V729H643V260Q643 200 621 151T561 66T470
12T359 -8ZM365 979Q396 934 426 888T488 796H416L365 863L315 796H244L365 979Z" />
<glyph unicode="&#xdc;" glyph-name="Udieresis" horiz-adv-x="720" d="M359 -8Q300 -8 249 11T159 66T99 150T77 260V729H199V263Q199 231 211 203T245 154T296 121T359 108Q393 108 422 120T474 154T508 203T521 263V729H643V260Q643 200 621 151T561 66T470
12T359 -8ZM405 837Q405 863 424 881T467 899Q488 899 507 881T527 837Q527 809 508 792T467 775Q444 775 425 792T405 837ZM212 837Q212 863 231 881T274 899Q295 899 314 881T334 837Q334 809 315 792T274 775Q251 775 232 792T212 837Z" />
<glyph unicode="&#xdd;" glyph-name="Yacute" horiz-adv-x="669" d="M396 236V0H273V236Q268 243 248 280T199 370T138 482T77 594T28 684T3 729H142Q146 722 157 701T185 649T220 582T258 509T294 439T324 380L335 346Q339 354 342 363T348 380Q361 405 378 438T413
508T450 581T484 648T511 700T526 729H665L396 236ZM283 770Q306 803 328 837T374 905H477Q447 871 416 837T354 770H283Z" />
<glyph unicode="&#xde;" glyph-name="Thorn" horiz-adv-x="578" d="M84 0V711H206V600H290Q350 600 399 584T483 538T537 464T556 365Q556 321 543 278T501 200T424 144T308 122H206V0H84ZM206 237H304Q342 237 367 250T407 282T428 323T434 362Q434 378 429 399T409
440T369 472T305 485H206V237Z" />
<glyph unicode="&#xdf;" glyph-name="germandbls" horiz-adv-x="573" d="M233 6Q243 29 253 52T275 98Q293 91 315 91Q340 91 362 101T402 127T429 166T439 214Q439 240 429 262T401 302T362 328T314 337H312Q312 349 312 361T311 386V437Q342 437 361 454T380
500Q380 529 359 548T297 567Q241 567 219 528T197 421V0H95V330H30V430H95V429Q95 484 110 528T152 604T215 651T294 668Q338 668 373 655T432 620T469 567T482 505Q482 489 479 473T469 442T452 415T426 396Q443 392 463 377T500 337T529 282T541 213Q541 168
523 128T474 57T401 8T313 -10Q294 -10 273 -6T233 6Z" />
<glyph unicode="&#xe0;" glyph-name="agrave" horiz-adv-x="546" d="M31 208Q31 254 49 295T97 368T168 417T254 436Q284 436 308 429T349 411T377 391T390 374L394 425H487V0H390V28Q390 33 390 37T391 44Q387 39 377 30T350 11T310 -4T255 -11Q206 -11 165 7T94
55T48 124T31 208ZM128 214Q128 186 137 162T164 121T206 93T259 83Q288 83 312 93T353 121T380 163T390 214Q390 241 381 264T354 305T312 332T259 342Q230 342 206 333T165 306T138 265T128 214ZM187 622Q210 588 233 554T279 487H207Q176 520 145 554T84 622H187Z"
/>
<glyph unicode="&#xe1;" glyph-name="aacute" horiz-adv-x="546" d="M31 208Q31 254 49 295T97 368T168 417T254 436Q284 436 308 429T349 411T377 391T390 374L394 425H487V0H390V28Q390 33 390 37T391 44Q387 39 377 30T350 11T310 -4T255 -11Q206 -11 165 7T94
55T48 124T31 208ZM128 214Q128 186 137 162T164 121T206 93T259 83Q288 83 312 93T353 121T380 163T390 214Q390 241 381 264T354 305T312 332T259 342Q230 342 206 333T165 306T138 265T128 214ZM211 487Q234 520 256 554T302 622H405Q375 588 344 554T282 487H211Z"
/>
<glyph unicode="&#xe2;" glyph-name="acircumflex" horiz-adv-x="546" d="M31 208Q31 254 49 295T97 368T168 417T254 436Q284 436 308 429T349 411T377 391T390 374L394 425H487V0H390V28Q390 33 390 37T391 44Q387 39 377 30T350 11T310 -4T255 -11Q206 -11
165 7T94 55T48 124T31 208ZM128 214Q128 186 137 162T164 121T206 93T259 83Q288 83 312 93T353 121T380 163T390 214Q390 241 381 264T354 305T312 332T259 342Q230 342 206 333T165 306T138 265T128 214ZM257 669Q288 624 318 578T380 486H308L257 553L207 486H136L257
669Z" />
<glyph unicode="&#xe3;" glyph-name="atilde" horiz-adv-x="546" d="M31 208Q31 254 49 295T97 368T168 417T254 436Q284 436 308 429T349 411T377 391T390 374L394 425H487V0H390V28Q390 33 390 37T391 44Q387 39 377 30T350 11T310 -4T255 -11Q206 -11 165 7T94
55T48 124T31 208ZM128 214Q128 186 137 162T164 121T206 93T259 83Q288 83 312 93T353 121T380 163T390 214Q390 241 381 264T354 305T312 332T259 342Q230 342 206 333T165 306T138 265T128 214ZM248 485Q232 499 221 504T196 510Q189 510 181 509T166 502T152
489T145 466L91 468Q92 489 101 506T123 536T153 556T186 563Q211 563 230 555T266 531Q282 516 293 511T318 506Q325 506 333 507T348 514T361 527T369 550L423 548Q422 527 413 510T391 480T361 460T328 453Q304 453 285 461T248 485Z" />
<glyph unicode="&#xe4;" glyph-name="adieresis" horiz-adv-x="546" d="M31 208Q31 254 49 295T97 368T168 417T254 436Q284 436 308 429T349 411T377 391T390 374L394 425H487V0H390V28Q390 33 390 37T391 44Q387 39 377 30T350 11T310 -4T255 -11Q206 -11 165
7T94 55T48 124T31 208ZM128 214Q128 186 137 162T164 121T206 93T259 83Q288 83 312 93T353 121T380 163T390 214Q390 241 381 264T354 305T312 332T259 342Q230 342 206 333T165 306T138 265T128 214ZM290 534Q290 560 309 578T352 596Q373 596 392 578T412 534Q412
506 393 489T352 472Q329 472 310 489T290 534ZM97 534Q97 560 116 578T159 596Q180 596 199 578T219 534Q219 506 200 489T159 472Q136 472 117 489T97 534Z" />
<glyph unicode="&#xe5;" glyph-name="aring" horiz-adv-x="546" d="M31 208Q31 254 49 295T97 368T168 417T254 436Q284 436 308 429T349 411T377 391T390 374L394 425H487V0H390V28Q390 33 390 37T391 44Q387 39 377 30T350 11T310 -4T255 -11Q206 -11 165 7T94
55T48 124T31 208ZM128 214Q128 186 137 162T164 121T206 93T259 83Q288 83 312 93T353 121T380 163T390 214Q390 241 381 264T354 305T312 332T259 342Q230 342 206 333T165 306T138 265T128 214ZM174 555Q174 573 181 588T200 616T228 635T262 642Q280 642 296
635T324 616T343 589T350 555Q350 537 343 521T324 493T296 473T262 466Q244 466 228 473T200 492T181 521T174 555ZM229 553Q229 539 238 530T262 521Q276 521 285 530T295 553Q295 568 286 577T262 587Q248 587 239 578T229 553Z" />
<glyph unicode="&#xe6;" glyph-name="ae" horiz-adv-x="710" d="M661 49Q630 21 586 5T496 -11Q451 -11 412 5T342 49Q314 21 272 6T179 -9Q137 -9 108 1T62 29T36 69T28 116Q28 149 41 172T74 211T120 233T169 241H271Q275 277 293 312Q282 328 261 334T211 341Q172
341 141 333T87 311L48 385Q83 409 128 422T223 436Q267 436 301 423T355 387Q384 410 419 422T492 435Q564 435 618 392T696 277Q666 266 627 251T544 218T458 184T379 152Q396 121 426 102T494 83Q520 83 546 92T590 118L661 49ZM577 299Q565 321 541 331T494
342Q467 342 443 332T402 304T375 264T365 217V213Q390 223 418 234T475 258T530 280T577 299ZM115 125Q115 99 137 91T185 83Q220 83 248 91T290 118Q277 143 273 171H221Q160 171 138 158T115 125Z" />
<glyph unicode="&#xe7;" glyph-name="ccedilla" horiz-adv-x="425" d="M343 111Q358 92 372 75T401 39Q373 16 338 3T264 -11Q264 -25 268 -32T279 -45T293 -53T307 -62Q327 -78 336 -99T345 -149Q345 -169 338 -189T317 -225T282 -251T232 -261Q196 -261 166
-242T121 -180Q134 -172 148 -165T176 -151Q181 -166 193 -176T223 -186Q246 -186 257 -171T269 -133Q269 -114 259 -105T236 -86T213 -63T202 -23V-4Q165 5 134 25T81 74T45 138T32 213Q32 259 50 299T98 370T170 418T259 436Q301 436 337 423T404 386L343 315Q308
342 259 342Q230 342 206 332T165 305T138 265T128 213Q128 186 137 163T164 121T206 93T259 83Q309 83 343 111Z" />
<glyph unicode="&#xe8;" glyph-name="egrave" horiz-adv-x="473" d="M424 49Q393 21 349 5T259 -11Q212 -11 171 6T99 54T50 125T32 212Q32 258 50 298T98 369T169 417T255 435Q327 435 381 392T459 277Q429 266 390 251T307 218T221 184T142 152Q159 121 189
102T257 83Q283 83 309 92T353 118L424 49ZM340 299Q328 321 304 331T257 342Q230 342 206 332T165 304T138 264T128 217V213Q153 223 181 234T238 258T293 280T340 299ZM174 622Q197 588 220 554T266 487H194Q163 520 132 554T71 622H174Z" />
<glyph unicode="&#xe9;" glyph-name="eacute" horiz-adv-x="473" d="M424 49Q393 21 349 5T259 -11Q212 -11 171 6T99 54T50 125T32 212Q32 258 50 298T98 369T169 417T255 435Q327 435 381 392T459 277Q429 266 390 251T307 218T221 184T142 152Q159 121 189
102T257 83Q283 83 309 92T353 118L424 49ZM340 299Q328 321 304 331T257 342Q230 342 206 332T165 304T138 264T128 217V213Q153 223 181 234T238 258T293 280T340 299ZM187 487Q210 520 232 554T278 622H381Q351 588 320 554T258 487H187Z" />
<glyph unicode="&#xea;" glyph-name="ecircumflex" horiz-adv-x="473" d="M424 49Q393 21 349 5T259 -11Q212 -11 171 6T99 54T50 125T32 212Q32 258 50 298T98 369T169 417T255 435Q327 435 381 392T459 277Q429 266 390 251T307 218T221 184T142 152Q159 121
189 102T257 83Q283 83 309 92T353 118L424 49ZM227 670Q258 625 288 579T350 487H278L227 554L177 487H106L227 670ZM340 299Q328 321 304 331T257 342Q230 342 206 332T165 304T138 264T128 217V213Q153 223 181 234T238 258T293 280T340 299Z" />
<glyph unicode="&#xeb;" glyph-name="edieresis" horiz-adv-x="473" d="M424 49Q393 21 349 5T259 -11Q212 -11 171 6T99 54T50 125T32 212Q32 258 50 298T98 369T169 417T255 435Q327 435 381 392T459 277Q429 266 390 251T307 218T221 184T142 152Q159 121 189
102T257 83Q283 83 309 92T353 118L424 49ZM340 299Q328 321 304 331T257 342Q230 342 206 332T165 304T138 264T128 217V213Q153 223 181 234T238 258T293 280T340 299ZM271 534Q271 560 290 578T333 596Q354 596 373 578T393 534Q393 506 374 489T333 472Q310
472 291 489T271 534ZM78 534Q78 560 97 578T140 596Q161 596 180 578T200 534Q200 506 181 489T140 472Q117 472 98 489T78 534Z" />
<glyph unicode="&#xec;" glyph-name="igrave" horiz-adv-x="214" d="M155 0H59V425H155V0ZM59 622Q82 588 105 554T151 487H79Q48 520 17 554T-44 622H59Z" />
<glyph unicode="&#xed;" glyph-name="iacute" horiz-adv-x="214" d="M155 0H59V425H155V0ZM61 487Q84 520 106 554T152 622H255Q225 588 194 554T132 487H61Z" />
<glyph unicode="&#xee;" glyph-name="icircumflex" horiz-adv-x="214" d="M155 0H59V425H155V0ZM108 670Q139 625 169 579T231 487H159L108 554L58 487H-13L108 670Z" />
<glyph unicode="&#xef;" glyph-name="idieresis" horiz-adv-x="214" d="M155 0H59V425H155V0ZM146 534Q146 560 165 578T208 596Q229 596 248 578T268 534Q268 506 249 489T208 472Q185 472 166 489T146 534ZM-47 534Q-47 560 -28 578T15 596Q36 596 55 578T75
534Q75 506 56 489T15 472Q-8 472 -27 489T-47 534Z" />
<glyph unicode="&#xf0;" glyph-name="eth" horiz-adv-x="519" d="M33 213Q33 259 50 299T99 370T171 417T260 435Q281 435 301 431T340 420Q311 512 240 609Q226 592 212 578T183 547L128 597Q159 633 194 669Q169 697 144 722T90 771L148 824Q175 804 200 781T250
731Q264 746 278 760T306 792L361 742Q345 725 330 708T298 673Q334 626 367 570T426 455T467 335T483 219V213Q483 167 467 126T420 55T349 7T259 -11Q212 -11 171 5T100 50T51 121T33 213ZM128 212Q128 185 138 162T165 121T206 93T257 83Q284 83 307 93T348
120T376 161T387 212Q387 239 377 262T349 303T308 331T257 342Q230 342 207 332T166 304T138 263T128 212Z" />
<glyph unicode="&#xf1;" glyph-name="ntilde" horiz-adv-x="522" d="M59 425H143Q145 389 147 367T152 316Q175 370 217 403T322 436Q387 436 425 401T466 308V0H371V263Q369 294 349 316T287 341Q258 341 234 331T192 302T165 259T155 205V0H59V425ZM279 513Q263
527 252 532T227 538Q220 538 212 537T197 530T183 517T176 494L122 496Q123 517 132 534T154 564T184 584T217 591Q242 591 261 583T297 559Q313 544 324 539T349 534Q356 534 364 535T379 542T392 555T400 578L454 576Q453 555 444 538T422 508T392 488T359 481Q335
481 316 489T279 513Z" />
<glyph unicode="&#xf2;" glyph-name="ograve" d="M32 213Q32 259 49 299T98 370T170 417T259 435Q307 435 348 418T418 370T465 300T482 213Q482 167 466 126T419 55T348 7T258 -11Q211 -11 170 5T99 50T50 121T32 213ZM127 212Q127 185 137 162T164 121T205 93T256
83Q283 83 306 93T347 120T375 161T386 212Q386 239 376 262T348 303T307 331T256 342Q229 342 206 332T165 304T137 263T127 212ZM189 622Q212 588 235 554T281 487H209Q178 520 147 554T86 622H189Z" />
<glyph unicode="&#xf3;" glyph-name="oacute" d="M32 213Q32 259 49 299T98 370T170 417T259 435Q307 435 348 418T418 370T465 300T482 213Q482 167 466 126T419 55T348 7T258 -11Q211 -11 170 5T99 50T50 121T32 213ZM127 212Q127 185 137 162T164 121T205 93T256
83Q283 83 306 93T347 120T375 161T386 212Q386 239 376 262T348 303T307 331T256 342Q229 342 206 332T165 304T137 263T127 212ZM256 487Q279 520 301 554T347 622H450Q420 588 389 554T327 487H256Z" />
<glyph unicode="&#xf4;" glyph-name="ocircumflex" d="M32 213Q32 259 49 299T98 370T170 417T259 435Q307 435 348 418T418 370T465 300T482 213Q482 167 466 126T419 55T348 7T258 -11Q211 -11 170 5T99 50T50 121T32 213ZM127 212Q127 185 137 162T164 121T205
93T256 83Q283 83 306 93T347 120T375 161T386 212Q386 239 376 262T348 303T307 331T256 342Q229 342 206 332T165 304T137 263T127 212ZM258 670Q289 625 319 579T381 487H309L258 554L208 487H137L258 670Z" />
<glyph unicode="&#xf5;" glyph-name="otilde" d="M32 213Q32 259 49 299T98 370T170 417T259 435Q307 435 348 418T418 370T465 300T482 213Q482 167 466 126T419 55T348 7T258 -11Q211 -11 170 5T99 50T50 121T32 213ZM127 212Q127 185 137 162T164 121T205 93T256
83Q283 83 306 93T347 120T375 161T386 212Q386 239 376 262T348 303T307 331T256 342Q229 342 206 332T165 304T137 263T127 212ZM259 485Q243 499 232 504T207 510Q200 510 192 509T177 502T163 489T156 466L102 468Q103 489 112 506T134 536T164 556T197 563Q222
563 241 555T277 531Q293 516 304 511T329 506Q336 506 344 507T359 514T372 527T380 550L434 548Q433 527 424 510T402 480T372 460T339 453Q315 453 296 461T259 485Z" />
<glyph unicode="&#xf6;" glyph-name="odieresis" d="M32 213Q32 259 49 299T98 370T170 417T259 435Q307 435 348 418T418 370T465 300T482 213Q482 167 466 126T419 55T348 7T258 -11Q211 -11 170 5T99 50T50 121T32 213ZM127 212Q127 185 137 162T164 121T205
93T256 83Q283 83 306 93T347 120T375 161T386 212Q386 239 376 262T348 303T307 331T256 342Q229 342 206 332T165 304T137 263T127 212ZM309 534Q309 560 328 578T371 596Q392 596 411 578T431 534Q431 506 412 489T371 472Q348 472 329 489T309 534ZM116 534Q116
560 135 578T178 596Q199 596 218 578T238 534Q238 506 219 489T178 472Q155 472 136 489T116 534Z" />
<glyph unicode="&#xf7;" glyph-name="divide" horiz-adv-x="450" d="M407 208H42V308H407V208ZM166 411Q166 437 185 455T228 474Q250 474 269 456T288 411Q288 383 269 367T228 350Q205 350 186 366T166 411ZM166 109Q166 135 185 153T228 172Q250 172 269 154T288
109Q288 81 269 65T228 48Q205 48 186 64T166 109Z" />
<glyph unicode="&#xf8;" glyph-name="oslash" d="M32 213Q32 259 49 299T98 370T170 417T259 435Q291 435 320 427T374 404L417 454L467 414L424 364Q451 334 466 296T482 213Q482 167 466 126T419 55T348 7T258 -11Q221 -11 189 -1T128 27Q111 8 99 -7T79 -30L31
13L80 70Q57 98 45 134T32 213ZM191 100Q220 83 256 83Q283 83 306 93T347 120T375 161T386 212Q386 255 359 290L191 100ZM127 212Q127 176 146 144L309 330Q285 342 256 342Q229 342 206 332T165 304T137 263T127 212Z" />
<glyph unicode="&#xf9;" glyph-name="ugrave" horiz-adv-x="523" d="M463 -10H383L371 108Q348 57 308 24T201 -10Q135 -10 97 24T56 116V425H152V161Q154 130 173 109T236 85Q265 85 289 95T330 123T358 166T368 220V425H463V-10ZM198 622Q221 588 244 554T290
487H218Q187 520 156 554T95 622H198Z" />
<glyph unicode="&#xfa;" glyph-name="uacute" horiz-adv-x="523" d="M463 -10H383L371 108Q348 57 308 24T201 -10Q135 -10 97 24T56 116V425H152V161Q154 130 173 109T236 85Q265 85 289 95T330 123T358 166T368 220V425H463V-10ZM199 487Q222 520 244 554T290
622H393Q363 588 332 554T270 487H199Z" />
<glyph unicode="&#xfb;" glyph-name="ucircumflex" horiz-adv-x="523" d="M463 -10H383L371 108Q348 57 308 24T201 -10Q135 -10 97 24T56 116V425H152V161Q154 130 173 109T236 85Q265 85 289 95T330 123T358 166T368 220V425H463V-10ZM235 670Q266 625 296 579T358
487H286L235 554L185 487H114L235 670Z" />
<glyph unicode="&#xfc;" glyph-name="udieresis" horiz-adv-x="523" d="M463 -10H383L371 108Q348 57 308 24T201 -10Q135 -10 97 24T56 116V425H152V161Q154 130 173 109T236 85Q265 85 289 95T330 123T358 166T368 220V425H463V-10ZM275 534Q275 560 294 578T337
596Q358 596 377 578T397 534Q397 506 378 489T337 472Q314 472 295 489T275 534ZM82 534Q82 560 101 578T144 596Q165 596 184 578T204 534Q204 506 185 489T144 472Q121 472 102 489T82 534Z" />
<glyph unicode="&#xfd;" glyph-name="yacute" horiz-adv-x="490" d="M181 -204H85Q100 -174 113 -147T139 -91T166 -32T197 33Q174 78 150 128T100 229T51 330T4 425H108Q146 351 170 301T209 217T232 162T245 122Q251 140 259 161T282 217T321 301T383 425H486L181
-204ZM204 487Q227 520 249 554T295 622H398Q368 588 337 554T275 487H204Z" />
<glyph unicode="&#xfe;" glyph-name="thorn" horiz-adv-x="547" d="M514 211Q514 163 498 123T453 52T382 6T292 -11Q243 -11 206 7T154 47Q154 43 154 40T155 31V-204H59V781H155V371Q163 381 175 392T206 413T246 429T296 436Q345 436 385 421T453 376T498 305T514
211ZM410 213Q410 269 378 305T287 342Q258 342 234 333T193 306T165 265T155 214Q155 186 165 162T192 121T234 93T287 83Q316 83 339 93T377 121T401 162T410 213Z" />
<glyph unicode="&#xff;" glyph-name="ydieresis" horiz-adv-x="490" d="M181 -204H85Q100 -174 113 -147T139 -91T166 -32T197 33Q174 78 150 128T100 229T51 330T4 425H108Q146 351 170 301T209 217T232 162T245 122Q251 140 259 161T282 217T321 301T383 425H486L181
-204ZM266 534Q266 560 285 578T328 596Q349 596 368 578T388 534Q388 506 369 489T328 472Q305 472 286 489T266 534ZM73 534Q73 560 92 578T135 596Q156 596 175 578T195 534Q195 506 176 489T135 472Q112 472 93 489T73 534Z" />
<glyph unicode="&#x2013;" glyph-name="endash" horiz-adv-x="419" d="M57 168V267H362V168H57Z" />
<glyph unicode="&#x2014;" glyph-name="emdash" horiz-adv-x="624" d="M57 168V267H567V168H57Z" />
<glyph unicode="&#x2018;" glyph-name="quoteleft" horiz-adv-x="182" d="M143 600Q130 592 118 586T92 574Q64 603 52 641T48 722L109 715Q102 680 112 650T143 600Z" />
<glyph unicode="&#x2019;" glyph-name="quoteright" horiz-adv-x="184" d="M91 574Q78 580 66 586T40 600Q62 620 71 650T74 715L136 722Q144 680 132 642T91 574Z" />
<glyph unicode="&#x201a;" glyph-name="quotesinglbase" horiz-adv-x="195" d="M83 -56Q70 -49 58 -43T32 -30Q54 -9 63 21T66 87L127 94Q135 51 123 12T83 -56Z" />
<glyph unicode="&#x201c;" glyph-name="quotedblleft" horiz-adv-x="288" d="M143 600Q120 586 92 574Q64 603 52 641T48 722L109 715Q102 680 112 650T143 600ZM249 600Q236 592 224 586T198 574Q170 603 158 641T154 722L215 715Q208 680 218 650T249 600Z" />
<glyph unicode="&#x201d;" glyph-name="quotedblright" horiz-adv-x="288" d="M90 574Q77 580 65 586T39 600Q61 620 70 650T73 715L135 722Q143 680 131 642T90 574ZM196 574Q183 580 171 586T145 600Q167 620 176 650T179 715L240 722Q248 680 236 642T196 574Z" />
<glyph unicode="&#x201e;" glyph-name="quotedblbase" horiz-adv-x="301" d="M189 -56Q175 -49 163 -43T138 -30Q160 -9 169 21T172 87L233 94Q241 51 229 12T189 -56ZM83 -56Q70 -49 58 -43T32 -30Q54 -9 63 21T66 87L127 94Q135 51 123 12T83 -56Z" />
<glyph unicode="&#x2022;" glyph-name="bullet" horiz-adv-x="416" d="M63 305Q63 335 74 362T104 409T150 440T207 452Q237 452 264 441T310 409T341 362T353 305Q353 274 342 248T311 203T264 172T207 161Q177 161 151 172T105 202T74 248T63 305Z" />
<glyph unicode="&#x2039;" glyph-name="guilsinglleft" horiz-adv-x="283" d="M212 47L39 243Q42 246 55 260T86 296T125 341T164 385T196 420T212 438V321Q209 318 200 307T182 283T163 259T151 243Q154 239 163 228T181 203T200 179T212 163V47Z" />
<glyph unicode="&#x203a;" glyph-name="guilsinglright" horiz-adv-x="282" d="M70 163Q73 167 82 178T100 203T119 227T131 243Q128 247 119 258T101 282T82 306T70 321V438Q73 435 86 421T117 386T156 341T195 296T227 261T243 243L70 47V163Z" />
</font>
</defs>
</svg>
